<svg xmlns="http://www.w3.org/2000/svg" width="14.532" height="15" viewBox="0 0 14.532 15">
  <path id="admin-alt" d="M5,7.5A3.75,3.75,0,1,0,1.25,3.75,3.754,3.754,0,0,0,5,7.5ZM5,.625A3.125,3.125,0,1,1,1.875,3.75,3.129,3.129,0,0,1,5,.625Zm.625,8.437a.313.313,0,0,1-.312.313A4.692,4.692,0,0,0,.625,14.062v.625a.312.312,0,0,1-.625,0v-.625A5.318,5.318,0,0,1,5.312,8.75.313.313,0,0,1,5.625,9.062Zm5,.313a1.25,1.25,0,1,0,1.25,1.25A1.251,1.251,0,0,0,10.625,9.375Zm0,1.875a.625.625,0,1,1,.625-.625A.626.626,0,0,1,10.625,11.25Zm3.441.3-.4-.236a2.747,2.747,0,0,0,0-1.376l.4-.236a.938.938,0,0,0-.946-1.62l-.4.234a3.11,3.11,0,0,0-1.158-.668V7.187a.938.938,0,0,0-1.875,0v.461a3.1,3.1,0,0,0-1.158.668l-.4-.234A.938.938,0,1,0,7.182,9.7l.4.236a2.747,2.747,0,0,0,0,1.376l-.4.236a.937.937,0,1,0,.945,1.619l.4-.234a3.1,3.1,0,0,0,1.158.668v.461a.937.937,0,1,0,1.875,0V13.6a3.113,3.113,0,0,0,1.158-.668l.4.234a.937.937,0,1,0,.946-1.619Zm-.2.967a.313.313,0,0,1-.427.112l-.607-.354a.312.312,0,0,0-.386.056,2.484,2.484,0,0,1-1.263.728.312.312,0,0,0-.243.3v.7a.313.313,0,0,1-.625,0v-.7a.312.312,0,0,0-.243-.3,2.482,2.482,0,0,1-1.263-.728.313.313,0,0,0-.386-.056l-.607.354a.312.312,0,0,1-.316-.539l.612-.358a.312.312,0,0,0,.141-.364,2.247,2.247,0,0,1,0-1.485.311.311,0,0,0-.141-.363L7.5,9.162a.313.313,0,0,1,.316-.54l.607.354a.313.313,0,0,0,.386-.056,2.484,2.484,0,0,1,1.263-.728.312.312,0,0,0,.243-.3v-.7a.313.313,0,0,1,.625,0v.7a.312.312,0,0,0,.243.3,2.482,2.482,0,0,1,1.263.728.312.312,0,0,0,.386.056l.607-.354a.305.305,0,0,1,.237-.032.312.312,0,0,1,.079.572l-.612.357A.311.311,0,0,0,13,9.882a2.247,2.247,0,0,1,0,1.485.312.312,0,0,0,.141.364l.612.358a.313.313,0,0,1,.112.427Z"/>
</svg>
