<svg id="apps_2_" data-name="apps (2)" xmlns="http://www.w3.org/2000/svg" width="10" height="10" viewBox="0 0 10 10">
  <path id="Path_146" data-name="Path 146" d="M1.667,0h1.25A1.667,1.667,0,0,1,4.583,1.667v1.25A1.667,1.667,0,0,1,2.917,4.583H1.667A1.667,1.667,0,0,1,0,2.917V1.667A1.667,1.667,0,0,1,1.667,0Z" fill="#c8c8c8"/>
  <path id="Path_147" data-name="Path 147" d="M279,0h1.25a1.667,1.667,0,0,1,1.667,1.667v1.25a1.667,1.667,0,0,1-1.667,1.667H279a1.667,1.667,0,0,1-1.667-1.667V1.667A1.667,1.667,0,0,1,279,0Z" transform="translate(-271.917)" fill="#c8c8c8"/>
  <path id="Path_148" data-name="Path 148" d="M1.667,277.333h1.25A1.667,1.667,0,0,1,4.583,279v1.25a1.667,1.667,0,0,1-1.667,1.667H1.667A1.667,1.667,0,0,1,0,280.25V279A1.667,1.667,0,0,1,1.667,277.333Z" transform="translate(0 -271.916)" fill="#c8c8c8"/>
  <path id="Path_149" data-name="Path 149" d="M279,277.333h1.25A1.667,1.667,0,0,1,281.917,279v1.25a1.667,1.667,0,0,1-1.667,1.667H279a1.667,1.667,0,0,1-1.667-1.667V279A1.667,1.667,0,0,1,279,277.333Z" transform="translate(-271.917 -271.916)" fill="#c8c8c8"/>
</svg>
