<svg xmlns="http://www.w3.org/2000/svg" width="16.364" height="15" viewBox="0 0 16.364 15">
  <path id="bell-concierge_1_" data-name="bell-concierge (1)" d="M14.659,12.955a1.707,1.707,0,0,0,1.7-1.7V10.227A8.183,8.183,0,0,0,8.523,2.052V.341a.341.341,0,1,0-.682,0V2.053A8.367,8.367,0,0,0,0,10.49v.667a1.734,1.734,0,0,0,1.7,1.8H7.841v1.364H.341a.341.341,0,1,0,0,.682H16.023a.341.341,0,0,0,0-.682h-7.5V12.955ZM.682,11.157V10.49A7.723,7.723,0,0,1,8.193,2.727a7.5,7.5,0,0,1,7.489,7.5v1.023a1.024,1.024,0,0,1-1.023,1.023H1.7A1.049,1.049,0,0,1,.682,11.156Z"/>
</svg>
