<svg xmlns="http://www.w3.org/2000/svg" width="14.997" height="15" viewBox="0 0 14.997 15">
  <path id="benefit-porcent" d="M3.177,5.764,6.927.139a.312.312,0,0,1,.52.346L3.7,6.11a.313.313,0,0,1-.521-.346ZM7.187,3.75A1.25,1.25,0,1,1,5.937,5a1.251,1.251,0,0,1,1.25-1.25Zm0,.625A.625.625,0,1,0,7.812,5a.626.626,0,0,0-.625-.625Zm-5-3.125A1.25,1.25,0,1,1,3.437,2.5,1.251,1.251,0,0,1,2.187,1.25Zm.625,0A.625.625,0,1,0,3.437.625.626.626,0,0,0,2.812,1.25ZM14.6,8.238l-4.254,4.774A5.945,5.945,0,0,1,5.915,15H2.187A2.19,2.19,0,0,1,0,12.813V9.688A2.19,2.19,0,0,1,2.187,7.5H8.348A1.653,1.653,0,0,1,9.937,8.7l2.332-2.564a1.557,1.557,0,0,1,1.087-.511A1.569,1.569,0,0,1,14.6,8.238ZM14.066,6.5a.957.957,0,0,0-.68-.246.941.941,0,0,0-.654.307L9.923,9.645a1.662,1.662,0,0,1-1.341,1.14l-3.857.462a.313.313,0,0,1-.074-.621l3.85-.461a1.026,1.026,0,0,0-.152-2.041H2.187A1.565,1.565,0,0,0,.625,9.687v3.125a1.565,1.565,0,0,0,1.562,1.562H5.915A5.315,5.315,0,0,0,9.881,12.6l4.254-4.774A.948.948,0,0,0,14.066,6.5Z"/>
</svg>
