<svg id="briefcase_1_" data-name="briefcase (1)" xmlns="http://www.w3.org/2000/svg" width="15" height="15" viewBox="0 0 15 15">
  <path id="Path_328" data-name="Path 328" d="M11.875,2.5h-.687A3.131,3.131,0,0,0,8.125,0H6.875A3.131,3.131,0,0,0,3.813,2.5H3.125A3.129,3.129,0,0,0,0,5.625V7.5H15V5.625A3.129,3.129,0,0,0,11.875,2.5Zm-6.76,0a1.875,1.875,0,0,1,1.76-1.25h1.25A1.875,1.875,0,0,1,9.885,2.5Z" fill="#107b7f"/>
  <path id="Path_329" data-name="Path 329" d="M8.125,14.625a.625.625,0,0,1-1.25,0V14H0v3.125A3.129,3.129,0,0,0,3.125,20.25h8.75A3.129,3.129,0,0,0,15,17.125V14H8.125Z" transform="translate(0 -5.25)" fill="#107b7f"/>
</svg>
