<svg id="briefcase" xmlns="http://www.w3.org/2000/svg" width="15.167" height="15.167" viewBox="0 0 15.167 15.167">
  <path id="Path_82" data-name="Path 82" d="M12.008,2.528h-.7A3.166,3.166,0,0,0,8.216,0H6.952a3.166,3.166,0,0,0-3.1,2.528h-.7A3.164,3.164,0,0,0,0,5.688v1.9H15.167v-1.9a3.164,3.164,0,0,0-3.16-3.16Zm-6.835,0a1.9,1.9,0,0,1,1.78-1.264H8.216A1.9,1.9,0,0,1,10,2.528Z" fill="#0472f4"/>
  <path id="Path_83" data-name="Path 83" d="M8.216,14.632a.632.632,0,1,1-1.264,0V14H0v3.16a3.164,3.164,0,0,0,3.16,3.16h8.848a3.164,3.164,0,0,0,3.16-3.16V14H8.216Z" transform="translate(0 -5.152)" fill="#0472f4"/>
</svg>
