<svg xmlns="http://www.w3.org/2000/svg" width="15" height="15" viewBox="0 0 15 15">
  <path id="bullseye-arrow_1_" data-name="bullseye-arrow (1)" d="M14.825,5.869A7.5,7.5,0,1,1,7.5,0,7.9,7.9,0,0,1,9.131.175a.314.314,0,1,1-.137.612A7.055,7.055,0,0,0,7.5.625,6.875,6.875,0,1,0,14.375,7.5a7.011,7.011,0,0,0-.163-1.494.314.314,0,1,1,.612-.138ZM8.375,3.212A.313.313,0,1,0,8.5,2.6a4.846,4.846,0,0,0-1-.1,5,5,0,1,0,5,5,4.846,4.846,0,0,0-.1-1,.313.313,0,1,0-.613.125,4.565,4.565,0,0,1,.087.875A4.375,4.375,0,1,1,7.5,3.125,4.565,4.565,0,0,1,8.375,3.212ZM7.231,5.644a.312.312,0,0,0,.262-.356.3.3,0,0,0-.356-.263A2.5,2.5,0,1,0,9.969,7.856a.313.313,0,1,0-.619-.094A1.875,1.875,0,1,1,7.225,5.637ZM10,4.556V2.706A1.555,1.555,0,0,1,10.456,1.6L11.969.094A.311.311,0,0,1,12.5.312V2.5h2.188a.312.312,0,0,1,.287.194.307.307,0,0,1-.069.338L13.4,4.537a1.555,1.555,0,0,1-1.106.456h-1.85L7.725,7.712a.314.314,0,0,1-.219.094.3.3,0,0,1-.219-.094.309.309,0,0,1,0-.444L10.006,4.55Zm.625-.181h1.669a.937.937,0,0,0,.663-.275l.975-.975H12.187a.309.309,0,0,1-.312-.312V1.069l-.975.975a.937.937,0,0,0-.275.662Z"/>
</svg>
