<svg xmlns="http://www.w3.org/2000/svg" width="15" height="16.364" viewBox="0 0 15 16.364">
  <path id="chair-office_1_" data-name="chair-office (1)" d="M16,7.5a2.73,2.73,0,0,0-2.727-2.727V3.409A3.413,3.413,0,0,0,9.864,0H7.136A3.413,3.413,0,0,0,3.727,3.409V4.773A2.73,2.73,0,0,0,1,7.5v3.75a1.706,1.706,0,0,0,1.7,1.7H7.818V15H5.091a.682.682,0,1,0,0,1.364h6.818a.682.682,0,1,0,0-1.364H9.182V12.955H14.3a1.706,1.706,0,0,0,1.7-1.7ZM2.7,9.545a1.706,1.706,0,0,0-.341.035V7.5A1.365,1.365,0,0,1,3.727,6.136V8.182h9.545V6.136A1.365,1.365,0,0,1,14.636,7.5V9.58a1.706,1.706,0,0,0-.341-.035Z" transform="translate(-1)" fill="#455ede"/>
</svg>
