<svg xmlns="http://www.w3.org/2000/svg" width="15" height="14.994" viewBox="0 0 15 14.994">
  <path id="chart-user" d="M8.746,14.369h0a.627.627,0,0,1-.625.625H.625A.627.627,0,0,1,0,14.369H0A4.37,4.37,0,0,1,4.373,10h0A4.37,4.37,0,0,1,8.746,14.369ZM6.872,6.247a2.5,2.5,0,1,0-2.5,2.5A2.5,2.5,0,0,0,6.872,6.247ZM11.87,0H5.623A3.123,3.123,0,0,0,2.511,3a3.687,3.687,0,0,1,1.862-.5,3.746,3.746,0,0,1,3.6,2.718l1.4,1.4,2.243-2.243h-.993a.625.625,0,0,1,0-1.249h1.874a1.253,1.253,0,0,1,1.249,1.249V6.247a.625.625,0,1,1-1.249,0V5.254L10.252,7.5a1.252,1.252,0,0,1-1.768,0l-.45-.45V7.06A3.726,3.726,0,0,1,6.641,9.227a5.647,5.647,0,0,1,2.405,2.018h2.83A3.125,3.125,0,0,0,15,8.122v-5A3.125,3.125,0,0,0,11.876,0Z" fill="#8938e4"/>
</svg>
