<svg xmlns="http://www.w3.org/2000/svg" width="356.944" height="266.001" viewBox="0 0 356.944 266.001">
  <g id="_6199001_3147400" data-name="6199001_3147400" transform="translate(0 -54.952)">
    <g id="Background_Complete" transform="translate(0 54.952)">
      <g id="Group_80" data-name="Group 80">
        <rect id="Rectangle_570" data-name="Rectangle 570" width="356.944" height="0.178" transform="translate(0 233.76)" fill="#ebebeb"/>
        <rect id="Rectangle_571" data-name="Rectangle 571" width="23.645" height="0.178" transform="translate(286.037 241.359)" fill="#ebebeb"/>
        <rect id="Rectangle_572" data-name="Rectangle 572" width="6.206" height="0.178" transform="translate(217.295 241.269)" fill="#ebebeb"/>
        <rect id="Rectangle_573" data-name="Rectangle 573" width="13.701" height="0.178" transform="translate(307.478 245.251)" fill="#ebebeb"/>
        <rect id="Rectangle_574" data-name="Rectangle 574" width="30.835" height="0.178" transform="translate(50.982 247.615)" fill="#ebebeb"/>
        <rect id="Rectangle_575" data-name="Rectangle 575" width="4.521" height="0.178" transform="translate(74.641 239.821)" fill="#ebebeb"/>
        <rect id="Rectangle_576" data-name="Rectangle 576" width="43.474" height="0.178" transform="translate(133.887 240.583)" fill="#ebebeb"/>
        <path id="Path_206" data-name="Path 206" d="M180.133,256.874H42.282a4.08,4.08,0,0,1-4.075-4.075V59.027a4.08,4.08,0,0,1,4.075-4.075H180.133a4.08,4.08,0,0,1,4.074,4.075V252.8A4.08,4.08,0,0,1,180.133,256.874ZM42.282,55.131a3.9,3.9,0,0,0-3.9,3.9V252.8a3.9,3.9,0,0,0,3.9,3.9H180.133a3.9,3.9,0,0,0,3.9-3.9V59.027a3.9,3.9,0,0,0-3.9-3.9H42.282Z" transform="translate(-10.931 -54.952)" fill="#ebebeb"/>
        <path id="Path_207" data-name="Path 207" d="M396.43,256.874H258.579a4.079,4.079,0,0,1-4.074-4.075V59.027a4.08,4.08,0,0,1,4.074-4.075H396.43a4.079,4.079,0,0,1,4.075,4.075V252.8A4.079,4.079,0,0,1,396.43,256.874ZM258.579,55.131a3.9,3.9,0,0,0-3.9,3.9V252.8a3.9,3.9,0,0,0,3.9,3.9H396.43a3.9,3.9,0,0,0,3.9-3.9V59.027a3.9,3.9,0,0,0-3.9-3.9H258.579Z" transform="translate(-72.817 -54.952)" fill="#ebebeb"/>
      </g>
      <g id="Group_92" data-name="Group 92" transform="translate(50.364 36.61)">
        <g id="Group_81" data-name="Group 81" transform="translate(147.993)">
          <rect id="Rectangle_577" data-name="Rectangle 577" width="110.907" height="138.883" transform="translate(112.021 138.883) rotate(180)" fill="#f5f5f5"/>
          <path id="Path_208" data-name="Path 208" d="M280.073,297.773h108.7a2.218,2.218,0,0,1,2.218,2.218v1.219a2.218,2.218,0,0,1-2.218,2.218h-108.7a2.218,2.218,0,0,1-2.218-2.218v-1.219A2.218,2.218,0,0,1,280.073,297.773Z" transform="translate(-277.855 -161.036)" fill="#ebebeb"/>
          <path id="Path_209" data-name="Path 209" d="M313.94,115.253h61.037a1.011,1.011,0,0,1,1.011,1.011h0a1.011,1.011,0,0,1-1.011,1.011H313.94a1.011,1.011,0,0,1-1.011-1.011h0A1.01,1.01,0,0,1,313.94,115.253Z" transform="translate(-287.89 -108.815)" fill="#ebebeb"/>
        </g>
        <g id="Group_87" data-name="Group 87" transform="translate(0 62.805)">
          <g id="Group_84" data-name="Group 84" transform="translate(8.91)">
            <g id="Group_82" data-name="Group 82">
              <rect id="Rectangle_578" data-name="Rectangle 578" width="79.08" height="27.543" transform="translate(79.08 27.543) rotate(180)" fill="#f0f0f0"/>
              <rect id="Rectangle_579" data-name="Rectangle 579" width="24.535" height="76.072" transform="translate(77.576 1.504) rotate(90)" fill="#e6e6e6"/>
              <rect id="Rectangle_580" data-name="Rectangle 580" width="1.504" height="26.924" transform="translate(53.239 27.234) rotate(180)" fill="#f0f0f0"/>
              <rect id="Rectangle_581" data-name="Rectangle 581" width="8.331" height="24.535" transform="translate(53.239 1.504)" fill="#e0e0e0"/>
              <rect id="Rectangle_582" data-name="Rectangle 582" width="8.331" height="24.535" transform="translate(27.404 1.504)" fill="#e0e0e0"/>
              <rect id="Rectangle_583" data-name="Rectangle 583" width="8.331" height="24.535" transform="translate(1.504 1.504)" fill="#e0e0e0"/>
              <rect id="Rectangle_584" data-name="Rectangle 584" width="1.504" height="26.924" transform="translate(27.399 27.234) rotate(180)" fill="#f0f0f0"/>
              <rect id="Rectangle_585" data-name="Rectangle 585" width="7.487" height="27.543" transform="translate(79.079)" fill="#e6e6e6"/>
            </g>
            <g id="Group_83" data-name="Group 83" transform="translate(4.545 3.426)">
              <path id="Path_210" data-name="Path 210" d="M163.537,222.3H177.4l-3.257-20.923H160.28Z" transform="translate(-109.677 -199.688)" fill="#ebebeb"/>
              <path id="Path_211" data-name="Path 211" d="M125.914,222.3h13.866l-2.407-20.923H123.507Z" transform="translate(-99.156 -199.688)" fill="#f5f5f5"/>
              <path id="Path_212" data-name="Path 212" d="M134.035,223.059h12.612l-5.307-19.032H128.728Z" transform="translate(-100.65 -200.446)" fill="#e0e0e0"/>
              <rect id="Rectangle_586" data-name="Rectangle 586" width="13.866" height="22.612" transform="translate(73.03 22.612) rotate(180)" fill="#f5f5f5"/>
              <rect id="Rectangle_587" data-name="Rectangle 587" width="13.866" height="22.612" transform="translate(13.866 22.612) rotate(180)" fill="#f5f5f5"/>
              <path id="Path_213" data-name="Path 213" d="M101.653,223.059H112.4l-3.736-19.032H97.918Z" transform="translate(-91.835 -200.446)" fill="#e0e0e0"/>
              <path id="Path_214" data-name="Path 214" d="M108.274,223.613h6.184V205.964h-12.09Z" transform="translate(-93.108 -201)" fill="#f5f5f5"/>
              <rect id="Rectangle_588" data-name="Rectangle 588" width="3.159" height="22.612" transform="translate(3.159 22.612) rotate(180)" fill="#fafafa"/>
              <path id="Path_215" data-name="Path 215" d="M177.7,220.611h0a.418.418,0,0,0,.418-.418V201.8a.418.418,0,0,0-.418-.418h0a.418.418,0,0,0-.418.418v18.4A.418.418,0,0,0,177.7,220.611Z" transform="translate(-114.542 -199.688)" fill="#f0f0f0"/>
            </g>
          </g>
          <g id="Group_86" data-name="Group 86" transform="translate(0 27.543)">
            <rect id="Rectangle_589" data-name="Rectangle 589" width="17.954" height="106.801" transform="translate(17.954 106.802) rotate(180)" fill="#e6e6e6"/>
            <path id="Path_216" data-name="Path 216" d="M73.959,378.511h-3.41v-9.7h6.985Z" transform="translate(-70.549 -271.709)" fill="#f0f0f0"/>
            <rect id="Rectangle_590" data-name="Rectangle 590" width="17.954" height="106.801" transform="translate(108.197 106.802) rotate(180)" fill="#e6e6e6"/>
            <rect id="Rectangle_591" data-name="Rectangle 591" width="93.22" height="100.85" transform="translate(93.22 100.85) rotate(180)" fill="#f0f0f0"/>
            <g id="Group_85" data-name="Group 85" transform="translate(2.289 2.291)">
              <path id="Path_217" data-name="Path 217" d="M158.916,255.817H77.236a3.485,3.485,0,0,1-3.481-3.481V239.483A3.485,3.485,0,0,1,77.236,236h81.68a3.485,3.485,0,0,1,3.481,3.481v12.853A3.485,3.485,0,0,1,158.916,255.817Zm-81.68-19.1a2.77,2.77,0,0,0-2.767,2.767v12.853a2.77,2.77,0,0,0,2.767,2.767h81.68a2.77,2.77,0,0,0,2.767-2.767V239.482a2.77,2.77,0,0,0-2.767-2.767Z" transform="translate(-73.755 -236.002)" fill="#e6e6e6"/>
              <path id="Path_218" data-name="Path 218" d="M113.808,331.325H77.236a3.485,3.485,0,0,1-3.481-3.481V269.307a3.485,3.485,0,0,1,3.481-3.481h36.572a3.485,3.485,0,0,1,3.481,3.481v58.537A3.485,3.485,0,0,1,113.808,331.325ZM77.236,266.54a2.77,2.77,0,0,0-2.767,2.767v58.537a2.77,2.77,0,0,0,2.767,2.767h36.572a2.77,2.77,0,0,0,2.767-2.767V269.307a2.77,2.77,0,0,0-2.767-2.767Z" transform="translate(-73.755 -244.535)" fill="#e6e6e6"/>
              <path id="Path_219" data-name="Path 219" d="M176.995,331.325H140.423a3.485,3.485,0,0,1-3.481-3.481V269.307a3.485,3.485,0,0,1,3.481-3.481h36.572a3.485,3.485,0,0,1,3.481,3.481v58.537A3.485,3.485,0,0,1,176.995,331.325ZM140.423,266.54a2.77,2.77,0,0,0-2.767,2.767v58.537a2.77,2.77,0,0,0,2.767,2.767h36.572a2.77,2.77,0,0,0,2.767-2.767V269.307a2.77,2.77,0,0,0-2.767-2.767Z" transform="translate(-91.834 -244.535)" fill="#e6e6e6"/>
            </g>
            <path id="Path_220" data-name="Path 220" d="M145.254,277.949a3.388,3.388,0,1,1,3.388-3.389A3.393,3.393,0,0,1,145.254,277.949Zm0-6.063a2.675,2.675,0,1,0,2.674,2.674A2.678,2.678,0,0,0,145.254,271.886Z" transform="translate(-90.953 -243.774)" fill="#fafafa"/>
            <path id="Path_221" data-name="Path 221" d="M123.708,277.949a3.388,3.388,0,1,1,3.389-3.389A3.392,3.392,0,0,1,123.708,277.949Zm0-6.063a2.675,2.675,0,1,0,2.675,2.674A2.678,2.678,0,0,0,123.708,271.886Z" transform="translate(-84.789 -243.774)" fill="#fafafa"/>
            <path id="Path_222" data-name="Path 222" d="M194.919,378.511h3.41v-9.7h-6.985Z" transform="translate(-105.11 -271.709)" fill="#f0f0f0"/>
            <path id="Path_223" data-name="Path 223" d="M133.92,252.1a3.388,3.388,0,1,1,3.388-3.389A3.393,3.393,0,0,1,133.92,252.1Zm0-6.062a2.675,2.675,0,1,0,2.674,2.674A2.678,2.678,0,0,0,133.92,246.042Z" transform="translate(-87.711 -236.379)" fill="#fafafa"/>
          </g>
        </g>
        <g id="Group_91" data-name="Group 91" transform="translate(1.983 8.042)">
          <g id="Group_90" data-name="Group 90" transform="translate(0 21.464)">
            <g id="Group_89" data-name="Group 89">
              <g id="Group_88" data-name="Group 88">
                <rect id="Rectangle_592" data-name="Rectangle 592" width="8.49" height="4.01" transform="translate(93.478)" fill="#e6e6e6"/>
                <rect id="Rectangle_593" data-name="Rectangle 593" width="93.479" height="4.01" transform="translate(93.479 4.01) rotate(180)" fill="#f5f5f5"/>
              </g>
            </g>
          </g>
          <path id="Path_224" data-name="Path 224" d="M127.819,129.832a12.712,12.712,0,0,1-12.69,12.659h-6.3a12.712,12.712,0,0,1-12.69-12.659Z" transform="translate(-79.853 -121.028)" fill="#f0f0f0"/>
          <path id="Path_225" data-name="Path 225" d="M127.819,117.5a12.712,12.712,0,0,1-12.69,12.659h-6.3A12.712,12.712,0,0,1,96.139,117.5h31.68Z" transform="translate(-79.853 -117.499)" fill="#f0f0f0"/>
          <path id="Path_226" data-name="Path 226" d="M179.835,129.832a12.712,12.712,0,0,1-12.69,12.659h-6.3a12.712,12.712,0,0,1-12.69-12.659Z" transform="translate(-94.736 -121.028)" fill="#f0f0f0"/>
          <path id="Path_227" data-name="Path 227" d="M179.835,117.5a12.712,12.712,0,0,1-12.69,12.659h-6.3a12.712,12.712,0,0,1-12.69-12.659h31.68Z" transform="translate(-94.736 -117.499)" fill="#f0f0f0"/>
        </g>
      </g>
    </g>
    <g id="Shadow_1_" transform="translate(40.057 304.787)">
      <ellipse id="_x3C_Path_x3E__23_" cx="138.415" cy="8.083" rx="138.415" ry="8.083" fill="#f5f5f5"/>
    </g>
    <g id="Smartphone" transform="translate(165.142 104.975)">
      <g id="Group_100" data-name="Group 100" transform="translate(0 0)">
        <g id="Group_99" data-name="Group 99">
          <path id="Path_228" data-name="Path 228" d="M246.974,128.523h76.635a6.9,6.9,0,0,1,6.925,7.194l-5.8,155.694a7.55,7.55,0,0,1-7.462,7.194H240.638a6.9,6.9,0,0,1-6.925-7.194l5.8-155.694A7.549,7.549,0,0,1,246.974,128.523Z" transform="translate(-232.009 -126.024)" fill="#263238"/>
          <rect id="Rectangle_594" data-name="Rectangle 594" width="5.32" height="0.714" transform="translate(50.115)" fill="#407bff"/>
          <rect id="Rectangle_595" data-name="Rectangle 595" width="14.992" height="0.714" transform="translate(29.497)" fill="#407bff"/>
          <path id="Path_229" data-name="Path 229" d="M244.593,128.523h76.635a6.9,6.9,0,0,1,6.925,7.194l-5.8,155.694a7.55,7.55,0,0,1-7.462,7.194H238.258a6.9,6.9,0,0,1-6.925-7.194l5.8-155.694A7.549,7.549,0,0,1,244.593,128.523Z" transform="translate(-231.328 -126.024)" fill="#407bff"/>
          <path id="Path_230" data-name="Path 230" d="M321.433,289.425l5.683-152.745a4.584,4.584,0,0,0-4.61-4.8H244.515a5.015,5.015,0,0,0-4.967,4.8l-5.683,152.745a4.585,4.585,0,0,0,4.61,4.8h77.989A5.015,5.015,0,0,0,321.433,289.425Z" transform="translate(-232.053 -126.985)" fill="#fff"/>
          <g id="Group_97" data-name="Group 97" transform="translate(5.816 114.84)">
            <g id="Group_93" data-name="Group 93" transform="translate(6.554)">
              <path id="Path_231" data-name="Path 231" d="M257,296.042h-6.711a1.62,1.62,0,0,1-1.63-1.721l.356-6.711a1.842,1.842,0,0,1,1.812-1.721h6.711a1.62,1.62,0,0,1,1.63,1.721l-.356,6.711A1.842,1.842,0,0,1,257,296.042Z" transform="translate(-248.655 -285.888)" fill="#e6e6e6"/>
              <path id="Path_232" data-name="Path 232" d="M273.635,296.042h-6.711a1.62,1.62,0,0,1-1.63-1.721l.356-6.711a1.841,1.841,0,0,1,1.812-1.721h6.711a1.62,1.62,0,0,1,1.63,1.721l-.356,6.711A1.841,1.841,0,0,1,273.635,296.042Z" transform="translate(-253.415 -285.888)" fill="#e6e6e6"/>
              <path id="Path_233" data-name="Path 233" d="M290.273,296.042h-6.711a1.62,1.62,0,0,1-1.63-1.721l.356-6.711a1.842,1.842,0,0,1,1.812-1.721h6.711a1.62,1.62,0,0,1,1.63,1.721l-.356,6.711A1.841,1.841,0,0,1,290.273,296.042Z" transform="translate(-258.175 -285.888)" fill="#e6e6e6"/>
              <path id="Path_234" data-name="Path 234" d="M306.91,296.042H300.2a1.62,1.62,0,0,1-1.63-1.721l.356-6.711a1.842,1.842,0,0,1,1.812-1.721h6.711a1.62,1.62,0,0,1,1.63,1.721l-.356,6.711A1.841,1.841,0,0,1,306.91,296.042Z" transform="translate(-262.935 -285.888)" fill="#e6e6e6"/>
              <path id="Path_235" data-name="Path 235" d="M323.548,296.042h-6.711a1.62,1.62,0,0,1-1.63-1.721l.356-6.711a1.841,1.841,0,0,1,1.812-1.721h6.711a1.62,1.62,0,0,1,1.63,1.721l-.356,6.711A1.841,1.841,0,0,1,323.548,296.042Z" transform="translate(-267.695 -285.888)" fill="#e6e6e6"/>
              <path id="Path_236" data-name="Path 236" d="M340.186,296.042h-6.711a1.62,1.62,0,0,1-1.63-1.721l.356-6.711a1.842,1.842,0,0,1,1.812-1.721h6.711a1.62,1.62,0,0,1,1.63,1.721L342,294.32A1.841,1.841,0,0,1,340.186,296.042Z" transform="translate(-272.456 -285.888)" fill="#e6e6e6"/>
            </g>
            <g id="Group_94" data-name="Group 94" transform="translate(0 11.581)">
              <path id="Path_237" data-name="Path 237" d="M247.818,312.264h-6.711a1.62,1.62,0,0,1-1.63-1.721l.356-6.711a1.841,1.841,0,0,1,1.812-1.72h6.711a1.62,1.62,0,0,1,1.63,1.72l-.356,6.711A1.841,1.841,0,0,1,247.818,312.264Z" transform="translate(-239.475 -302.111)" fill="#e6e6e6"/>
              <path id="Path_238" data-name="Path 238" d="M264.456,312.264h-6.711a1.62,1.62,0,0,1-1.63-1.721l.356-6.711a1.84,1.84,0,0,1,1.812-1.72h6.711a1.62,1.62,0,0,1,1.63,1.72l-.356,6.711A1.841,1.841,0,0,1,264.456,312.264Z" transform="translate(-244.235 -302.111)" fill="#e6e6e6"/>
              <path id="Path_239" data-name="Path 239" d="M281.094,312.264h-6.711a1.62,1.62,0,0,1-1.63-1.721l.356-6.711a1.841,1.841,0,0,1,1.812-1.72h6.711a1.62,1.62,0,0,1,1.63,1.72l-.356,6.711A1.841,1.841,0,0,1,281.094,312.264Z" transform="translate(-248.995 -302.111)" fill="#e6e6e6"/>
              <path id="Path_240" data-name="Path 240" d="M297.731,312.264H291.02a1.62,1.62,0,0,1-1.63-1.721l.356-6.711a1.841,1.841,0,0,1,1.812-1.72h6.711a1.62,1.62,0,0,1,1.63,1.72l-.356,6.711A1.841,1.841,0,0,1,297.731,312.264Z" transform="translate(-253.755 -302.111)" fill="#e6e6e6"/>
              <path id="Path_241" data-name="Path 241" d="M314.369,312.264h-6.711a1.62,1.62,0,0,1-1.63-1.721l.356-6.711a1.84,1.84,0,0,1,1.812-1.72h6.711a1.62,1.62,0,0,1,1.63,1.72l-.356,6.711A1.841,1.841,0,0,1,314.369,312.264Z" transform="translate(-258.516 -302.111)" fill="#e6e6e6"/>
              <path id="Path_242" data-name="Path 242" d="M331.006,312.264h-6.711a1.62,1.62,0,0,1-1.63-1.721l.356-6.711a1.841,1.841,0,0,1,1.812-1.72h6.711a1.62,1.62,0,0,1,1.63,1.72l-.356,6.711A1.84,1.84,0,0,1,331.006,312.264Z" transform="translate(-263.276 -302.111)" fill="#e6e6e6"/>
              <path id="Path_243" data-name="Path 243" d="M347.644,312.264h-6.711a1.62,1.62,0,0,1-1.63-1.721l.356-6.711a1.841,1.841,0,0,1,1.812-1.72h6.711a1.62,1.62,0,0,1,1.63,1.72l-.356,6.711A1.841,1.841,0,0,1,347.644,312.264Z" transform="translate(-268.036 -302.111)" fill="#e6e6e6"/>
            </g>
            <g id="Group_95" data-name="Group 95" transform="translate(5.325 23.164)">
              <path id="Path_244" data-name="Path 244" d="M255.277,328.487h-6.711a1.62,1.62,0,0,1-1.63-1.72l.356-6.711a1.84,1.84,0,0,1,1.812-1.72h6.711a1.62,1.62,0,0,1,1.63,1.72l-.356,6.711A1.841,1.841,0,0,1,255.277,328.487Z" transform="translate(-246.934 -318.335)" fill="#e6e6e6"/>
              <path id="Path_245" data-name="Path 245" d="M271.914,328.487H265.2a1.62,1.62,0,0,1-1.63-1.72l.356-6.711a1.841,1.841,0,0,1,1.812-1.72h6.711a1.62,1.62,0,0,1,1.63,1.72l-.356,6.711A1.841,1.841,0,0,1,271.914,328.487Z" transform="translate(-251.694 -318.335)" fill="#e6e6e6"/>
              <path id="Path_246" data-name="Path 246" d="M288.552,328.487h-6.711a1.62,1.62,0,0,1-1.63-1.72l.356-6.711a1.841,1.841,0,0,1,1.812-1.72h6.711a1.62,1.62,0,0,1,1.63,1.72l-.356,6.711A1.841,1.841,0,0,1,288.552,328.487Z" transform="translate(-256.454 -318.335)" fill="#e6e6e6"/>
              <path id="Path_247" data-name="Path 247" d="M305.19,328.487h-6.711a1.62,1.62,0,0,1-1.63-1.72l.356-6.711a1.841,1.841,0,0,1,1.812-1.72h6.711a1.62,1.62,0,0,1,1.63,1.72L307,326.767A1.841,1.841,0,0,1,305.19,328.487Z" transform="translate(-261.214 -318.335)" fill="#e6e6e6"/>
              <path id="Path_248" data-name="Path 248" d="M321.827,328.487h-6.711a1.62,1.62,0,0,1-1.63-1.72l.356-6.711a1.841,1.841,0,0,1,1.812-1.72h6.711a1.62,1.62,0,0,1,1.63,1.72l-.356,6.711A1.841,1.841,0,0,1,321.827,328.487Z" transform="translate(-265.974 -318.335)" fill="#e6e6e6"/>
              <path id="Path_249" data-name="Path 249" d="M338.465,328.487h-6.711a1.62,1.62,0,0,1-1.63-1.72l.356-6.711a1.841,1.841,0,0,1,1.812-1.72H339a1.62,1.62,0,0,1,1.63,1.72l-.356,6.711A1.841,1.841,0,0,1,338.465,328.487Z" transform="translate(-270.735 -318.335)" fill="#e6e6e6"/>
            </g>
            <g id="Group_96" data-name="Group 96" transform="translate(10.649 34.744)">
              <path id="Path_250" data-name="Path 250" d="M303.3,344.709H272.483a1.454,1.454,0,0,1-1.463-1.546l.375-7.062a1.654,1.654,0,0,1,1.628-1.546h30.816A1.454,1.454,0,0,1,305.3,336.1l-.375,7.062A1.654,1.654,0,0,1,303.3,344.709Z" transform="translate(-259.148 -334.556)" fill="#e6e6e6"/>
              <path id="Path_251" data-name="Path 251" d="M262.735,344.709h-6.711a1.62,1.62,0,0,1-1.63-1.72l.356-6.711a1.841,1.841,0,0,1,1.812-1.72h6.711a1.62,1.62,0,0,1,1.63,1.72l-.356,6.711A1.841,1.841,0,0,1,262.735,344.709Z" transform="translate(-254.392 -334.556)" fill="#e6e6e6"/>
              <path id="Path_252" data-name="Path 252" d="M329.285,344.709h-6.711a1.62,1.62,0,0,1-1.63-1.72l.356-6.711a1.841,1.841,0,0,1,1.812-1.72h6.711a1.62,1.62,0,0,1,1.63,1.72l-.356,6.711A1.841,1.841,0,0,1,329.285,344.709Z" transform="translate(-273.432 -334.556)" fill="#e6e6e6"/>
            </g>
          </g>
          <path id="Path_253" data-name="Path 253" d="M284.268,198.254H254.919a8.143,8.143,0,0,1-8.183-8.567l.483-10.788a9.074,9.074,0,0,1,8.95-8.567h29.349A8.143,8.143,0,0,1,293.7,178.9l-.483,10.788A9.074,9.074,0,0,1,284.268,198.254Z" transform="translate(-235.734 -137.987)" fill="#407bff"/>
          <path id="Path_254" data-name="Path 254" d="M329.1,229.627H294.735a5.758,5.758,0,0,1-5.787-6.057l.083-1.845a6.416,6.416,0,0,1,6.329-6.057h34.367a5.759,5.759,0,0,1,5.787,6.057l-.083,1.845A6.416,6.416,0,0,1,329.1,229.627Z" transform="translate(-247.812 -150.957)" fill="#e6e6e6"/>
          <path id="Path_255" data-name="Path 255" d="M307.3,155.88H290.017a2.9,2.9,0,0,1-2.91-3.046l.041-.928a3.226,3.226,0,0,1,3.183-3.046h17.281a2.9,2.9,0,0,1,2.91,3.046l-.041.928A3.227,3.227,0,0,1,307.3,155.88Z" transform="translate(-247.286 -131.843)" fill="#263238"/>
          <g id="Group_98" data-name="Group 98" transform="translate(83.782 6.552)">
            <path id="Path_256" data-name="Path 256" d="M354.129,136.16h0a.488.488,0,0,1,.493.583h0a.707.707,0,0,1-.673.583h0a.488.488,0,0,1-.493-.583h0A.708.708,0,0,1,354.129,136.16Z" transform="translate(-350.05 -134.761)" fill="#407bff"/>
            <path id="Path_257" data-name="Path 257" d="M351.855,135.192h0a.488.488,0,0,1,.493.583l-.107.691a.707.707,0,0,1-.673.583h0a.488.488,0,0,1-.493-.583l.107-.691A.708.708,0,0,1,351.855,135.192Z" transform="translate(-349.369 -134.485)" fill="#407bff"/>
            <path id="Path_258" data-name="Path 258" d="M349.585,134.2h0a.488.488,0,0,1,.493.583l-.216,1.4a.707.707,0,0,1-.673.583h0a.488.488,0,0,1-.493-.583l.216-1.4A.708.708,0,0,1,349.585,134.2Z" transform="translate(-348.688 -134.201)" fill="#407bff"/>
          </g>
          <path id="Path_259" data-name="Path 259" d="M258.381,134.661a.236.236,0,0,0-.238-.257h-.183a.9.9,0,0,0-.865-.624H253a1.079,1.079,0,0,0-1.056.982l-.068.9a.9.9,0,0,0,.909.982h4.1a1.08,1.08,0,0,0,.959-.624h.184a.283.283,0,0,0,.276-.257Z" transform="translate(-237.206 -127.528)" fill="#407bff"/>
          <path id="Path_260" data-name="Path 260" d="M295.03,130.609l.086.393A6.006,6.006,0,0,0,301,135.738h0a6.228,6.228,0,0,0,6.01-4.666l.12-.463Z" transform="translate(-249.554 -126.621)" fill="#407bff"/>
        </g>
      </g>
    </g>
    <g id="Character_1_" transform="translate(88.904 94.038)">
      <g id="Group_108" data-name="Group 108" transform="translate(0 0)">
        <g id="Group_107" data-name="Group 107">
          <path id="Path_261" data-name="Path 261" d="M223.413,169.508c.151,1.65.35,3.457.594,5.183.254,1.742.5,3.486.833,5.21a73.447,73.447,0,0,0,2.574,10.1c.252.826.592,1.6.883,2.4l1.015,2.466,2.11,4.988c1.4,3.345,2.817,6.7,4.126,10.1l-2.765,1.438c-2.038-3.058-3.919-6.189-5.756-9.363-.914-1.59-1.8-3.2-2.661-4.829-.435-.817-.852-1.642-1.266-2.492-.386-.885-.827-1.764-1.161-2.661a64.316,64.316,0,0,1-3.227-10.925c-.387-1.843-.741-3.689-.986-5.551-.253-1.878-.483-3.687-.593-5.666Z" transform="translate(-151.029 -126.813)" fill="#ff8b7b"/>
          <path id="Path_262" data-name="Path 262" d="M219.942,159.386c2.536.645,4.31,11.082,4.31,11.082l-9.7,6.6s-3.99-12.372-2.039-15.159C214.545,159,216.241,158.444,219.942,159.386Z" transform="translate(-149.553 -123.797)" fill="#263238"/>
          <path id="Path_263" data-name="Path 263" d="M222.02,162.82l1.948,10.519L220.04,176Z" transform="translate(-151.86 -124.9)" opacity="0.2"/>
          <path id="Path_264" data-name="Path 264" d="M241.22,224.441l5.159,4.142-5.28,1.741s-2.91-2.673-2.274-5.15Z" transform="translate(-157.209 -142.53)" fill="#ff8b7b"/>
          <g id="Group_101" data-name="Group 101" transform="translate(83.89 86.053)">
            <path id="Path_265" data-name="Path 265" d="M249.607,232.484l-5.236,1.66-2.324-2.16,5.281-1.741Z" transform="translate(-242.046 -230.243)" fill="#ff8b7b"/>
          </g>
          <path id="Path_266" data-name="Path 266" d="M278.2,254.594l-32.529-8.186a6.15,6.15,0,0,1-4.414-7.782l.858-2.861a6.852,6.852,0,0,1,8.133-4.624l32.529,8.186a6.15,6.15,0,0,1,4.414,7.782l-.858,2.861A6.852,6.852,0,0,1,278.2,254.594Z" transform="translate(-157.855 -144.391)" fill="#407bff"/>
          <path id="Path_267" data-name="Path 267" d="M203.915,399.893h6.152l.411-14.249h-6.153Z" transform="translate(-147.247 -188.652)" fill="#ff8b7b"/>
          <path id="Path_268" data-name="Path 268" d="M130.845,363.287l5.1,3.444,9.617-10.7-5.1-3.445Z" transform="translate(-126.341 -179.194)" fill="#ff8b7b"/>
          <path id="Path_269" data-name="Path 269" d="M134.822,369.9l-4.7-5.065a.487.487,0,0,0-.642-.074l-4.543,3.145a.989.989,0,0,0-.131,1.468c1.67,1.738,2.564,2.492,4.633,4.72,1.273,1.37,3.975,5.578,5.733,7.471,1.719,1.851,3.722.255,3.16-.69a21.066,21.066,0,0,1-3.083-9.962A1.6,1.6,0,0,0,134.822,369.9Z" transform="translate(-124.535 -182.654)" fill="#263238"/>
          <path id="Path_270" data-name="Path 270" d="M209.543,404.606H202.63a.488.488,0,0,0-.491.42l-.787,5.469a.989.989,0,0,0,.987,1.094c2.41-.041,3.572-.183,6.611-.183,1.87,0,5.738.194,8.321.194,2.526,0,2.721-2.554,1.645-2.785-4.822-1.037-6.72-2.467-8.344-3.831A1.608,1.608,0,0,0,209.543,404.606Z" transform="translate(-146.511 -194.078)" fill="#263238"/>
          <g id="Group_102" data-name="Group 102" transform="translate(9.158 173.395)" opacity="0.2">
            <path id="Path_271" data-name="Path 271" d="M210.555,385.65l-.211,7.344h-6.156l.211-7.344Z" transform="translate(-156.483 -362.049)"/>
            <path id="Path_272" data-name="Path 272" d="M142.322,352.59l5.1,3.447-5.291,5.882-4.769-3.815Z" transform="translate(-137.363 -352.59)"/>
          </g>
          <path id="Path_273" data-name="Path 273" d="M210.165,158.841s2.931,1.032-2.941,37.136h-24.99c.419-10.171.431-16.442-4.43-37.315a73.778,73.778,0,0,1,10.612-1.4,79.427,79.427,0,0,1,11.347,0C204.638,157.71,210.165,158.841,210.165,158.841Z" transform="translate(-139.776 -123.252)" fill="#263238"/>
          <path id="Path_274" data-name="Path 274" d="M199.505,124.736c.151-6.057-9.363-5.795-11.791-4.923-4.86,1.745-12.612,16.938,1.874,21.252,6.93,2.064,14.268,2.167,19.91-3.365,3.655-3.584,2.953-6.906.109-6.405-1.5.265,2.17-10.466-4.353-9.413C199.993,122.73,199.505,124.736,199.505,124.736Z" transform="translate(-140.759 -112.462)" fill="#263238"/>
          <path id="Path_275" data-name="Path 275" d="M180.646,170.88c2.263.564,4.355,3.034,4.1,7.581a10.933,10.933,0,0,1-2.085,5.725c-.4-3.5-1.071-7.56-2.135-12.757Z" transform="translate(-140.557 -127.206)" opacity="0.2"/>
          <path id="Path_276" data-name="Path 276" d="M193.793,139.449c.716,3.652,1.43,10.341-1.124,12.777,0,0,2.549,2.271,9.206,5.78,5.062-4.046,2.141-5.78,2.141-5.78-4.071-.972-3.966-3.993-3.257-6.83Z" transform="translate(-144.029 -118.213)" fill="#ff8b7b"/>
          <path id="Path_277" data-name="Path 277" d="M197.986,142.848l4.123,3.518a11.63,11.63,0,0,0-.35,2.014c-1.556-.225-4-1.55-4.335-3.241A4.86,4.86,0,0,1,197.986,142.848Z" transform="translate(-145.382 -119.186)" opacity="0.2"/>
          <path id="Path_278" data-name="Path 278" d="M191.942,123.523c-.879,6.043-1.38,8.582.994,12.274,3.572,5.553,11.186,5.311,13.853-.348,2.4-5.094,3.435-14.12-1.91-17.714A8.329,8.329,0,0,0,191.942,123.523Z" transform="translate(-143.612 -111.584)" fill="#ff8b7b"/>
          <path id="Path_279" data-name="Path 279" d="M191.556,127.122c2.988,1.311,4.561-5.153,3.552-6.755,3.292,1.309,16.123,2.042,18.886-.253,1.933-1.606-2.529-1.517-6.871-4.283-5.657-3.6-13.822-4.452-16.519,1.735C188.62,118.717,184.1,125.136,191.556,127.122Z" transform="translate(-142.528 -110.652)" fill="#263238"/>
          <path id="Path_280" data-name="Path 280" d="M188.583,117.956c-3.272-4.725,3.222-9.856,15.159-7.674,7.368,1.346,7.252.04,9.02-.515s.6,7.218-8.168,7.417C197.311,117.347,190.263,120.383,188.583,117.956Z" transform="translate(-142.619 -109.713)" fill="#263238"/>
          <path id="Path_281" data-name="Path 281" d="M176.4,129.306a.357.357,0,0,1-.3-.549l4.644-7.277a.357.357,0,1,1,.6.384l-4.644,7.277A.353.353,0,0,1,176.4,129.306Z" transform="translate(-139.272 -113.025)" fill="#407bff"/>
          <path id="Path_282" data-name="Path 282" d="M185.972,118.637c-1.507-2.618-5-4.482-7.218-2.3-2.763,2.713-.2,7.387,4.283,7.263S185.972,118.637,185.972,118.637Z" transform="translate(-139.721 -111.326)" fill="#263238"/>
          <path id="Path_283" data-name="Path 283" d="M184.48,116.944a.357.357,0,0,1-.3-.549l4.166-6.529a.357.357,0,1,1,.6.384l-4.167,6.529A.352.352,0,0,1,184.48,116.944Z" transform="translate(-141.584 -109.702)" fill="#407bff"/>
          <path id="Path_284" data-name="Path 284" d="M211.681,211.576s4.853,47.4,4.45,66.162c-.42,19.517-7.572,64.03-7.572,64.03h-8.32s1.316-43.372.581-62.54c-.8-20.9-7.439-67.652-7.439-67.652h18.3Z" transform="translate(-144.233 -138.85)" fill="#407bff"/>
          <path id="Path_285" data-name="Path 285" d="M201.8,392.962h9.762l.716-3.114-10.933-.381Z" transform="translate(-146.511 -189.746)" fill="#263238"/>
          <path id="Path_286" data-name="Path 286" d="M201.755,226.92c6.138,12.347,1.232,34.872-.938,43.252-1.113-12.586-2.99-27.97-4.453-39.268C197.294,224.511,198.924,221.227,201.755,226.92Z" transform="translate(-145.086 -142.401)" opacity="0.2"/>
          <path id="Path_287" data-name="Path 287" d="M189.125,211.576s-5.661,49.276-9.936,65.1c-5.076,18.782-34.627,44.185-34.627,44.185l-6.953-4.7S159.4,289.9,162.922,277.946c6.418-21.757,1.193-52.589,7.811-66.37Z" transform="translate(-128.276 -138.85)" fill="#407bff"/>
          <path id="Path_288" data-name="Path 288" d="M136.461,355.459l7.817,6.873,2.994-1.725-8.832-8.5Z" transform="translate(-127.947 -179.057)" fill="#263238"/>
          <path id="Path_289" data-name="Path 289" d="M205.089,131.121c-.1.485.074.933.391,1s.658-.273.759-.76-.074-.933-.391-1S205.191,130.636,205.089,131.121Z" transform="translate(-147.575 -115.611)" fill="#263238"/>
          <path id="Path_290" data-name="Path 290" d="M212.781,132.727c-.1.486.074.933.391,1s.657-.274.759-.76-.074-.934-.391-1S212.883,132.242,212.781,132.727Z" transform="translate(-149.775 -116.07)" fill="#263238"/>
          <path id="Path_291" data-name="Path 291" d="M213.652,131.931l1.237-.093S214.1,132.624,213.652,131.931Z" transform="translate(-150.033 -116.036)" fill="#263238"/>
          <path id="Path_292" data-name="Path 292" d="M209.879,133.766a13.259,13.259,0,0,0,1.084,3.462,2.135,2.135,0,0,1-1.8-.036Z" transform="translate(-148.749 -116.587)" fill="#ff5652"/>
          <path id="Path_293" data-name="Path 293" d="M203.958,139.519a4.754,4.754,0,0,0,.7.2.146.146,0,0,0,.173-.113.143.143,0,0,0-.113-.173,3.934,3.934,0,0,1-2.823-2.16.146.146,0,0,0-.271.106A4.072,4.072,0,0,0,203.958,139.519Z" transform="translate(-146.59 -117.565)" fill="#263238"/>
          <path id="Path_294" data-name="Path 294" d="M188.412,131.507a4.462,4.462,0,0,0,1.571,3.025c1.205,1,2.442.074,2.639-1.4.177-1.323-.236-3.437-1.7-3.865A2,2,0,0,0,188.412,131.507Z" transform="translate(-142.809 -115.277)" fill="#ff8b7b"/>
          <path id="Path_295" data-name="Path 295" d="M203.386,127.052a.291.291,0,0,0,.341.038,3.443,3.443,0,0,1,2.765.066.291.291,0,1,0,.248-.528,3.984,3.984,0,0,0-3.3-.045.29.29,0,0,0-.052.468Z" transform="translate(-147.068 -114.429)" fill="#263238"/>
          <path id="Path_296" data-name="Path 296" d="M215.625,127.932a.291.291,0,0,0,.33-.455,2.892,2.892,0,0,0-2.406-1.136.292.292,0,1,0,.056.58,2.309,2.309,0,0,1,1.894.92A.287.287,0,0,0,215.625,127.932Z" transform="translate(-149.928 -114.462)" fill="#263238"/>
          <path id="Path_297" data-name="Path 297" d="M140.422,375.192c.024,0,.049.007.074.009a.83.83,0,0,0,.732-.35.5.5,0,0,0,.1-.491c-.25-.745-2.405-1.294-2.65-1.354a.14.14,0,0,0-.151.054.146.146,0,0,0-.011.16C138.91,373.91,139.667,375.061,140.422,375.192Zm-1.471-1.811c.855.245,1.97.68,2.1,1.072a.207.207,0,0,1-.052.215.548.548,0,0,1-.481.243C140.1,374.882,139.524,374.311,138.952,373.381Z" transform="translate(-128.531 -185.035)" fill="#407bff"/>
          <path id="Path_298" data-name="Path 298" d="M138.823,372.886c.753.13,2.2.011,2.569-.506a.507.507,0,0,0-.036-.636.77.77,0,0,0-.563-.32c-.889-.087-2.193,1.112-2.248,1.164a.146.146,0,0,0,.055.246A1.638,1.638,0,0,0,138.823,372.886Zm1.987-1.165a.469.469,0,0,1,.311.194c.11.152.076.237.036.294a3.13,3.13,0,0,1-2.2.406,3.331,3.331,0,0,1,1.808-.9Z" transform="translate(-128.531 -184.583)" fill="#407bff"/>
          <path id="Path_299" data-name="Path 299" d="M215.241,405.488a2.313,2.313,0,0,0,1.493-.379.809.809,0,0,0,.263-.71.468.468,0,0,0-.247-.387c-.755-.415-3.207.84-3.484.984a.146.146,0,0,0,.039.273A10.573,10.573,0,0,0,215.241,405.488Zm1.1-1.274a.576.576,0,0,1,.272.053.179.179,0,0,1,.1.158.523.523,0,0,1-.167.466c-.373.336-1.386.395-2.75.168A7.949,7.949,0,0,1,216.338,404.214Z" transform="translate(-149.9 -193.884)" fill="#407bff"/>
          <path id="Path_300" data-name="Path 300" d="M213.333,404.692a.146.146,0,0,0,.06-.013c.733-.331,2.184-1.658,2.07-2.356-.027-.165-.144-.371-.548-.411a1.053,1.053,0,0,0-.807.252,4.111,4.111,0,0,0-.921,2.371.147.147,0,0,0,.061.131A.154.154,0,0,0,213.333,404.692ZM214.8,402.2q.043,0,.088,0c.266.027.283.134.289.168.069.418-.917,1.462-1.664,1.915a3.381,3.381,0,0,1,.784-1.9A.762.762,0,0,1,214.8,402.2Z" transform="translate(-149.9 -193.305)" fill="#407bff"/>
          <path id="Path_301" data-name="Path 301" d="M205.96,130.325l1.237-.093S206.408,131.019,205.96,130.325Z" transform="translate(-147.832 -115.576)" fill="#263238"/>
          <g id="Group_103" data-name="Group 103" transform="translate(41.424 71.072)">
            <path id="Path_302" data-name="Path 302" d="M183.221,209.446l-.639,2.237c-.087.173.118.35.407.35h25.719c.226,0,.412-.111.426-.252l.226-2.237c.016-.155-.18-.286-.426-.286H183.628A.455.455,0,0,0,183.221,209.446Z" transform="translate(-182.562 -209.258)" fill="#fff"/>
          </g>
          <g id="Group_104" data-name="Group 104" transform="translate(44.659 70.873)">
            <path id="Path_303" data-name="Path 303" d="M188,212.2h-.677c-.135,0-.238-.07-.228-.155l.318-2.906c.009-.085.127-.155.262-.155h.677c.135,0,.238.069.228.155l-.318,2.906C188.253,212.126,188.135,212.2,188,212.2Z" transform="translate(-187.093 -208.98)" fill="#407bff"/>
          </g>
          <g id="Group_105" data-name="Group 105" transform="translate(64.76 70.873)">
            <path id="Path_304" data-name="Path 304" d="M216.157,212.2h-.677c-.135,0-.238-.07-.228-.155l.318-2.906c.009-.085.127-.155.262-.155h.677c.135,0,.238.069.228.155l-.318,2.906C216.409,212.126,216.292,212.2,216.157,212.2Z" transform="translate(-215.25 -208.98)" fill="#407bff"/>
          </g>
          <g id="Group_106" data-name="Group 106" transform="translate(54.752 70.873)">
            <path id="Path_305" data-name="Path 305" d="M202.137,212.2h-.677c-.135,0-.238-.07-.228-.155l.318-2.906c.009-.085.127-.155.262-.155h.677c.135,0,.238.069.228.155l-.318,2.906C202.389,212.126,202.272,212.2,202.137,212.2Z" transform="translate(-201.23 -208.98)" fill="#407bff"/>
          </g>
          <path id="Path_306" data-name="Path 306" d="M217.678,198.2h6.113a.843.843,0,0,0,.822-.655l2.658-11.539a.844.844,0,0,0-.822-1.034h-6.113a.843.843,0,0,0-.822.655l-2.658,11.539A.843.843,0,0,0,217.678,198.2Z" transform="translate(-150.943 -131.238)" fill="#407bff"/>
          <path id="Path_307" data-name="Path 307" d="M212.312,194.739l6.069-2.712-1.73,6.013s-3.853.875-5.53-1.057Z" transform="translate(-149.308 -133.256)" fill="#ff8b7b"/>
          <path id="Path_308" data-name="Path 308" d="M179.46,170.489c-.259,1.9-.541,3.9-.744,5.848-.237,1.955-.429,3.911-.533,5.837a35.966,35.966,0,0,0,.011,5.52,9.418,9.418,0,0,0,.173,1.11,5.608,5.608,0,0,0,.164.564,1.98,1.98,0,0,0,1.034.732,8.884,8.884,0,0,0,2.266.535,22.894,22.894,0,0,0,2.7.139,50.159,50.159,0,0,0,5.741-.414c1.943-.238,3.895-.57,5.845-.95,1.95-.353,3.918-.8,5.827-1.239l.985,2.956a76.808,76.808,0,0,1-11.863,3.735,44.641,44.641,0,0,1-6.31,1.009,24.691,24.691,0,0,1-3.367.059,14.276,14.276,0,0,1-3.674-.637,8.557,8.557,0,0,1-1.994-.939,6.824,6.824,0,0,1-1.859-1.758,7.86,7.86,0,0,1-1.049-2.2,14.678,14.678,0,0,1-.438-1.861,36.2,36.2,0,0,1-.358-6.6c.056-2.12.2-4.2.394-6.269.231-2.074.468-4.1.839-6.19Z" transform="translate(-138.116 -126.803)" fill="#ff8b7b"/>
          <path id="Path_309" data-name="Path 309" d="M175.677,159.25c-2.5.761-5.308,9.836-5.308,9.836l10.232,4.343s2.821-5.049,1.768-8.285C181.274,161.774,178.534,158.382,175.677,159.25Z" transform="translate(-137.649 -123.839)" fill="#263238"/>
          <path id="Path_310" data-name="Path 310" d="M225.618,193.275l-1.72,4.956-5.029-.191,1.73-6.014Z" transform="translate(-151.525 -133.256)" fill="#ff8b7b"/>
        </g>
      </g>
    </g>
  </g>
</svg>
