<svg xmlns="http://www.w3.org/2000/svg" width="15" height="15" viewBox="0 0 15 15">
  <path id="circle-trash" d="M7.5,0A7.5,7.5,0,1,0,15,7.5,7.508,7.508,0,0,0,7.5,0Zm0,14.375A6.875,6.875,0,1,1,14.375,7.5,6.883,6.883,0,0,1,7.5,14.375ZM10.938,5H9.375V4.375a1.251,1.251,0,0,0-1.25-1.25H6.875a1.251,1.251,0,0,0-1.25,1.25V5H4.063a.313.313,0,0,0,0,.625h.313V10A1.877,1.877,0,0,0,6.25,11.875h2.5A1.877,1.877,0,0,0,10.625,10V5.625h.313a.313.313,0,0,0,0-.625ZM6.25,4.375a.626.626,0,0,1,.625-.625h1.25a.626.626,0,0,1,.625.625V5H6.25ZM10,10a1.251,1.251,0,0,1-1.25,1.25H6.25A1.251,1.251,0,0,1,5,10V5.625h5Z"/>
</svg>
