<svg xmlns="http://www.w3.org/2000/svg" width="15.168" height="15.167" viewBox="0 0 15.168 15.167">
  <path id="comment-alt" d="M12.64,0H2.528A2.528,2.528,0,0,0,0,2.528v7.584A2.528,2.528,0,0,0,2.528,12.64H4.361l2.813,2.378a.632.632,0,0,0,.817,0l2.817-2.378H12.64a2.528,2.528,0,0,0,2.528-2.528V2.528A2.528,2.528,0,0,0,12.64,0ZM4.424,3.16h3.16a.632.632,0,1,1,0,1.264H4.424a.632.632,0,0,1,0-1.264Zm6.32,6.32H4.424a.632.632,0,0,1,0-1.264h6.32a.632.632,0,0,1,0,1.264Zm0-2.528H4.424a.632.632,0,0,1,0-1.264h6.32a.632.632,0,0,1,0,1.264Z" fill="#b7b7b7"/>
</svg>
