<svg xmlns="http://www.w3.org/2000/svg" width="15" height="15" viewBox="0 0 15 15">
  <path id="dolly-flatbed-alt" d="M14.688,11.875h-10A2.19,2.19,0,0,1,2.5,9.688v-7.5A2.19,2.19,0,0,0,.313,0a.313.313,0,0,0,0,.625A1.564,1.564,0,0,1,1.875,2.188v7.5A2.817,2.817,0,0,0,3.75,12.339v.786a1.875,1.875,0,0,0,3.75,0V12.5H10v.625a1.875,1.875,0,0,0,3.75,0V12.5h.938a.313.313,0,0,0,0-.625Zm-7.812,1.25a1.25,1.25,0,1,1-2.5,0v-.642a2.865,2.865,0,0,0,.312.018H6.875Zm6.25,0a1.25,1.25,0,1,1-2.5,0V12.5h2.5Zm.313-6.875H5.313A1.564,1.564,0,0,0,3.75,7.813v1.25a1.564,1.564,0,0,0,1.563,1.563h8.125A1.564,1.564,0,0,0,15,9.063V7.813A1.564,1.564,0,0,0,13.438,6.25Zm.938,2.812a.939.939,0,0,1-.937.938H5.313a.939.939,0,0,1-.937-.937V7.813a.939.939,0,0,1,.938-.938h8.125a.939.939,0,0,1,.938.938ZM5.313,5H7.188A1.564,1.564,0,0,0,8.75,3.438V1.563A1.564,1.564,0,0,0,7.188,0H5.313A1.564,1.564,0,0,0,3.75,1.563V3.438A1.564,1.564,0,0,0,5.313,5ZM4.375,1.563A.939.939,0,0,1,5.313.625H7.188a.939.939,0,0,1,.937.938V3.438a.939.939,0,0,1-.937.938H5.313a.939.939,0,0,1-.937-.938Zm9.063-.313H11.563A1.564,1.564,0,0,0,10,2.813v.625A1.564,1.564,0,0,0,11.563,5h1.875A1.564,1.564,0,0,0,15,3.438V2.813A1.564,1.564,0,0,0,13.438,1.25Zm.938,2.188a.939.939,0,0,1-.937.938H11.563a.939.939,0,0,1-.937-.938V2.813a.939.939,0,0,1,.938-.937h1.875a.939.939,0,0,1,.938.938Z"/>
</svg>
