<svg xmlns="http://www.w3.org/2000/svg" width="15" height="15" viewBox="0 0 15 15">
  <path id="employees_1_" data-name="employees (1)" d="M11.563,10a2.5,2.5,0,1,1,2.5-2.5A2.5,2.5,0,0,1,11.563,10ZM7.5,5A2.5,2.5,0,1,1,10,2.5,2.5,2.5,0,0,1,7.5,5ZM3.438,10a2.5,2.5,0,1,1,2.5-2.5A2.5,2.5,0,0,1,3.438,10Zm3.438,5V13.125a1.872,1.872,0,0,0-1.824-1.87l-1.614,1.87L1.8,11.258A1.871,1.871,0,0,0,0,13.125V15m15,0V13.125a1.872,1.872,0,0,0-1.824-1.87l-1.614,1.87L9.924,11.258a1.871,1.871,0,0,0-1.8,1.867V15" fill="#107b7f"/>
</svg>
