<svg xmlns="http://www.w3.org/2000/svg" width="15.493" height="15.493" viewBox="0 0 15.493 15.493">
  <path id="floppy-disks" d="M15.025,2.585,12.936.478A1.7,1.7,0,0,0,11.79,0H4.842a2.909,2.909,0,0,0-2.9,2.9v7.747a2.909,2.909,0,0,0,2.9,2.9h7.747a2.909,2.909,0,0,0,2.9-2.9V3.722a1.6,1.6,0,0,0-.468-1.136ZM5.81.646h5.81v2.9a.323.323,0,0,1-.323.323H6.133a.323.323,0,0,1-.323-.323Zm9.038,10.006a2.262,2.262,0,0,1-2.259,2.259H4.842a2.262,2.262,0,0,1-2.259-2.259V2.9A2.262,2.262,0,0,1,4.842.646h.323v2.9a.97.97,0,0,0,.968.968H11.3a.97.97,0,0,0,.968-.968V.771a.961.961,0,0,1,.211.161l2.09,2.108h0a.962.962,0,0,1,.281.682v6.929ZM12.911,15.17a.323.323,0,0,1-.323.323H4.842A4.847,4.847,0,0,1,0,10.652V2.9a.323.323,0,0,1,.646,0v7.747a4.2,4.2,0,0,0,4.2,4.2h7.747A.323.323,0,0,1,12.911,15.17Zm-4.2-8.715a2.259,2.259,0,1,0,2.259,2.259A2.262,2.262,0,0,0,8.715,6.455Zm0,3.873a1.614,1.614,0,1,1,1.614-1.614A1.616,1.616,0,0,1,8.715,10.329Z"/>
</svg>
