<svg xmlns="http://www.w3.org/2000/svg" width="10.547" height="10.547" viewBox="0 0 10.547 10.547">
  <path id="globe" d="M5.273,0a5.273,5.273,0,1,0,5.273,5.273A5.273,5.273,0,0,0,5.273,0Zm3.8,3.076H7.658a8.646,8.646,0,0,0-1.24-2.041A4.408,4.408,0,0,1,9.073,3.076Zm-1.822,2.2a4.487,4.487,0,0,1-.209,1.318H3.5A4.487,4.487,0,0,1,3.3,5.273,4.487,4.487,0,0,1,3.5,3.955H7.042a4.487,4.487,0,0,1,.209,1.318ZM3.857,7.47H6.689A8.619,8.619,0,0,1,5.273,9.487,8.6,8.6,0,0,1,3.857,7.47Zm0-4.394A8.619,8.619,0,0,1,5.273,1.06,8.6,8.6,0,0,1,6.689,3.076Zm.273-2.041A8.646,8.646,0,0,0,2.889,3.076H1.473A4.408,4.408,0,0,1,4.131,1.035ZM1.081,3.955H2.593a5.28,5.28,0,0,0-.176,1.318,5.28,5.28,0,0,0,.176,1.318H1.081a4.391,4.391,0,0,1,0-2.637ZM1.473,7.47H2.889A8.646,8.646,0,0,0,4.131,9.511,4.408,4.408,0,0,1,1.473,7.47ZM6.418,9.511A8.646,8.646,0,0,0,7.658,7.47H9.073A4.408,4.408,0,0,1,6.418,9.511Zm3.047-2.92H7.954A5.28,5.28,0,0,0,8.13,5.273a5.28,5.28,0,0,0-.176-1.318h1.51a4.391,4.391,0,0,1,0,2.637Z" fill="#0472f4"/>
</svg>
