<svg xmlns="http://www.w3.org/2000/svg" width="15" height="15.002" viewBox="0 0 15 15.002">
  <path id="hand-holding-medical" d="M3.127,2.5a.625.625,0,0,1,.625-.625H5V.625a.625.625,0,1,1,1.25,0v1.25H7.5a.625.625,0,1,1,0,1.25H6.252v1.25a.625.625,0,1,1-1.25,0V3.125H3.752A.625.625,0,0,1,3.127,2.5ZM14.473,5.426a1.63,1.63,0,0,0-2.3.1L9.964,7.86a2.565,2.565,0,0,1-2.22,3.005l-2.658.373A.625.625,0,0,1,4.909,10l2.6-.364A1.425,1.425,0,0,0,8.724,8.554,1.386,1.386,0,0,0,7.371,6.876H2.5A2.5,2.5,0,0,0,0,9.376V12.5A2.5,2.5,0,0,0,2.5,15H5.167a6.25,6.25,0,0,0,4.609-2.029l4.814-5.256a1.637,1.637,0,0,0-.118-2.291Z" transform="translate(-0.003)" fill="#169b78"/>
</svg>
