<svg xmlns="http://www.w3.org/2000/svg" width="15.177" height="15.167" viewBox="0 0 15.177 15.167">
  <g id="home_3_" data-name="home (3)" transform="translate(0 -0.16)">
    <path id="Path_79" data-name="Path 79" d="M193.9,319.841a1.9,1.9,0,0,0-1.9,1.9v3.794h3.794v-3.794A1.9,1.9,0,0,0,193.9,319.841Z" transform="translate(-186.309 -310.205)" fill="#b7b7b7"/>
    <g id="Group_8" data-name="Group 8" transform="translate(0 0.16)">
      <path id="Path_80" data-name="Path 80" d="M10.75,11.533v3.794H13.28a1.9,1.9,0,0,0,1.9-1.9V7.662a1.265,1.265,0,0,0-.356-.88L9.447.972A2.529,2.529,0,0,0,5.873.832Q5.8.9,5.732.972L.367,6.78A1.265,1.265,0,0,0,0,7.672V13.43a1.9,1.9,0,0,0,1.9,1.9H4.427V11.533a3.162,3.162,0,1,1,6.324,0Z" transform="translate(0 -0.16)" fill="#b7b7b7"/>
      <path id="Path_81" data-name="Path 81" d="M193.9,319.841a1.9,1.9,0,0,0-1.9,1.9v3.794h3.794v-3.794A1.9,1.9,0,0,0,193.9,319.841Z" transform="translate(-186.309 -310.365)" fill="#b7b7b7"/>
    </g>
  </g>
</svg>
