<svg xmlns="http://www.w3.org/2000/svg" width="15.001" height="15" viewBox="0 0 15.001 15">
  <path id="it" d="M15,5.313v5a2.816,2.816,0,0,1-2.813,2.813H7.813v1.25h2.5a.313.313,0,0,1,0,.625H4.688a.313.313,0,0,1,0-.625h2.5v-1.25H2.813A2.816,2.816,0,0,1,0,10.313v-5A2.81,2.81,0,0,1,2.109,2.589a.313.313,0,0,1,.156.606A2.186,2.186,0,0,0,.625,5.314v5A2.19,2.19,0,0,0,2.813,12.5h9.375a2.19,2.19,0,0,0,2.188-2.188v-5a2.186,2.186,0,0,0-1.641-2.119.313.313,0,0,1,.156-.606A2.811,2.811,0,0,1,15,5.313ZM6.25,4.376A1.25,1.25,0,1,1,7.5,5.626,1.251,1.251,0,0,1,6.25,4.376Zm.625,0A.625.625,0,1,0,7.5,3.751.626.626,0,0,0,6.875,4.376ZM4.059,5.3l.4-.236a2.747,2.747,0,0,1,0-1.376l-.4-.235A.938.938,0,0,1,5,1.833l.4.234A3.1,3.1,0,0,1,6.563,1.4V.939a.938.938,0,0,1,1.875,0V1.4A3.1,3.1,0,0,1,9.6,2.067l.4-.234a.938.938,0,0,1,.945,1.619l-.4.236a2.747,2.747,0,0,1,0,1.376l.4.236A.937.937,0,1,1,10,6.919l-.4-.234a3.092,3.092,0,0,1-1.158.668v.461a.938.938,0,0,1-1.875,0V7.353a3.1,3.1,0,0,1-1.158-.668L5,6.919A.937.937,0,1,1,4.059,5.3Zm.2.967a.313.313,0,0,0,.428.112L5.3,6.024a.312.312,0,0,1,.385.056,2.487,2.487,0,0,0,1.263.728.312.312,0,0,1,.243.3v.7a.313.313,0,0,0,.625,0v-.7a.312.312,0,0,1,.243-.3,2.479,2.479,0,0,0,1.263-.728A.313.313,0,0,1,9.7,6.024l.608.354a.313.313,0,0,0,.428-.112.312.312,0,0,0-.112-.427l-.612-.358a.313.313,0,0,1-.141-.363A2.447,2.447,0,0,0,10,4.377a2.45,2.45,0,0,0-.126-.743.313.313,0,0,1,.141-.363l.612-.357a.314.314,0,0,0,.113-.428.311.311,0,0,0-.191-.144.315.315,0,0,0-.237.033l-.608.354a.312.312,0,0,1-.386-.056,2.481,2.481,0,0,0-1.263-.728.312.312,0,0,1-.243-.3v-.7a.313.313,0,0,0-.625,0v.7a.312.312,0,0,1-.243.3,2.485,2.485,0,0,0-1.263.728.312.312,0,0,1-.385.056L4.69,2.374a.313.313,0,1,0-.315.541l.612.357a.313.313,0,0,1,.141.364A2.434,2.434,0,0,0,5,4.377a2.437,2.437,0,0,0,.126.743.312.312,0,0,1-.141.364l-.612.358a.314.314,0,0,0-.113.428Z" transform="translate(0 -0.001)"/>
</svg>
