<svg xmlns="http://www.w3.org/2000/svg" width="15" height="15" viewBox="0 0 15 15">
  <path id="laptop-mobile" d="M.625,9.688a.936.936,0,0,0,.938.938H7.188a.313.313,0,0,1,0,.625H1.563A1.563,1.563,0,0,1,1.25,8.156V2.813A2.817,2.817,0,0,1,4.063,0h6.875A2.817,2.817,0,0,1,13.75,2.813v1.25a.313.313,0,0,1-.625,0V2.813A2.19,2.19,0,0,0,10.938.625H4.063A2.19,2.19,0,0,0,1.875,2.813V8.125H5.313a.293.293,0,0,1,.219.094l.531.531H7.181a.313.313,0,0,1,0,.625H5.931a.293.293,0,0,1-.219-.094L5.181,8.75H1.563A.936.936,0,0,0,.625,9.688ZM15,7.813v5A2.19,2.19,0,0,1,12.813,15H10.938A2.19,2.19,0,0,1,8.75,12.813v-5a2.19,2.19,0,0,1,2.188-2.187h1.875A2.19,2.19,0,0,1,15,7.813Zm-.625,0A1.563,1.563,0,0,0,12.813,6.25H10.938A1.563,1.563,0,0,0,9.375,7.813v5a1.563,1.563,0,0,0,1.563,1.563h1.875a1.563,1.563,0,0,0,1.563-1.562Z"/>
</svg>
