<svg id="linkedin" xmlns="http://www.w3.org/2000/svg" width="21.235" height="18.082" viewBox="0 0 21.235 18.082">
  <path id="Path_2525" d="M22.9,21.414h.2l-.385-.582h0a.329.329,0,0,0,.362-.333.185.185,0,0,0,0-.022c0-.25-.15-.369-.459-.369h-.5v1.306h.188v-.569h.231Zm-.376-.717h-.218v-.442h.276c.142,0,.305.023.305.21,0,.214-.165.232-.365.232" transform="translate(-2.548 -3.893)" fill="#212529"/>
  <path id="Path_2520" d="M15.3,17.081H12.638V12.914c0-.994-.018-2.272-1.384-2.272-1.386,0-1.6,1.082-1.6,2.2v4.238H7V8.513H9.551V9.683h.035A2.8,2.8,0,0,1,12.107,8.3c2.7,0,3.193,1.774,3.193,4.081Zm-11.3-9.74A1.544,1.544,0,1,1,5.539,5.8,1.544,1.544,0,0,1,3.995,7.341h0m1.33,9.74H2.661V8.513H5.325Zm11.3-15.3H1.325A1.311,1.311,0,0,0,0,3.077V18.441a1.311,1.311,0,0,0,1.325,1.3h15.3a1.314,1.314,0,0,0,1.33-1.3V3.076a1.313,1.313,0,0,0-1.33-1.294" transform="translate(0 -1.782)" fill="#212529"/>
  <path id="Path_2526" d="M22.445,19.451a1.224,1.224,0,1,0,.024,0h-.024m.028,2.308A1.1,1.1,0,0,1,21.354,20.7a1.073,1.073,0,0,1,2.147-.035v.018a1.05,1.05,0,0,1-1.027,1.072h-.027" transform="translate(-2.446 -3.818)" fill="#212529"/>
</svg>
