<svg xmlns="http://www.w3.org/2000/svg" width="19.86" height="20" viewBox="0 0 19.86 20">
  <g id="linkedin_1_" data-name="linkedin (1)" transform="translate(2.647 -1.782)">
    <path id="Path_2525" d="M22.772,21.2h.168l-.322-.486h0a.275.275,0,0,0,.3-.278.155.155,0,0,0,0-.018c0-.208-.126-.308-.384-.308h-.417V21.2h.157v-.475h.193Zm-.314-.6h-.182v-.369h.231c.119,0,.255.019.255.175,0,.179-.137.194-.3.194" transform="translate(-9.118 0.114)"/>
    <path id="Path_2520" d="M16.922,18.733H13.979V14.117c0-1.1-.02-2.518-1.531-2.518-1.533,0-1.767,1.2-1.767,2.438v4.7H7.739V9.24h2.825v1.3H10.6A3.1,3.1,0,0,1,13.391,9c2.983,0,3.532,1.966,3.532,4.521ZM4.419,7.942A1.711,1.711,0,1,1,6.126,6.231,1.709,1.709,0,0,1,4.419,7.942h0M5.89,18.733H2.944V9.24H5.89Zm12.5-16.95H1.465A1.451,1.451,0,0,0,0,3.217V20.24a1.451,1.451,0,0,0,1.465,1.435H18.389A1.454,1.454,0,0,0,19.86,20.24V3.216a1.454,1.454,0,0,0-1.471-1.434" transform="translate(-2.647)"/>
    <path id="Path_2526" d="M22.246,19.451a1.023,1.023,0,1,0,.02,0h-.02m.024,1.928a.917.917,0,0,1-.935-.881.9.9,0,1,1,1.793-.03v.015a.878.878,0,0,1-.858.9h-.023" transform="translate(-8.021 0.285)"/>
  </g>
</svg>
