<svg xmlns="http://www.w3.org/2000/svg" width="15" height="15" viewBox="0 0 15 15">
  <path id="man-scientist" d="M5.625,7.5a3.75,3.75,0,1,0-3.75-3.75A3.754,3.754,0,0,0,5.625,7.5Zm0-6.875A3.125,3.125,0,1,1,2.5,3.75,3.129,3.129,0,0,1,5.625.625ZM14.773,13.4,12.5,10.679V8.125h.625V7.5H10v.625h.625v2.554L8.352,13.4a1.006,1.006,0,0,0-.131,1.069.89.89,0,0,0,.8.53H14.1a.889.889,0,0,0,.8-.53,1.006,1.006,0,0,0-.131-1.069Zm-.435.8a.269.269,0,0,1-.236.169H9.024a.269.269,0,0,1-.236-.169.384.384,0,0,1,.044-.4l2.417-2.9V8.124h.625v2.781l2.417,2.9a.382.382,0,0,1,.044.4ZM5.6,12.662,2.743,9.382A2.186,2.186,0,0,0,.626,11.562V15H0V11.562A2.816,2.816,0,0,1,2.813,8.75h.208L5.6,11.712,8.2,8.75h.142a2.887,2.887,0,0,1,1.029.194v.674a2.151,2.151,0,0,0-.89-.241L5.6,12.662Z"/>
</svg>
