<svg xmlns="http://www.w3.org/2000/svg" width="17.555" height="17.563" viewBox="0 0 17.555 17.563">
  <path id="paper-plane-top" d="M16.2,6.637,2.463.177A1.679,1.679,0,0,0,.571.443a1.69,1.69,0,0,0-.44,1.9l3.43,6.435L.173,15.263a1.678,1.678,0,0,0,.465,1.856,1.69,1.69,0,0,0,1.134.443,1.71,1.71,0,0,0,.757-.179L16.2,10.927a2.369,2.369,0,0,0,0-4.291ZM.8,2.048A.961.961,0,0,1,1.06.987.989.989,0,0,1,1.713.732a.974.974,0,0,1,.432.1l.005,0L15.887,7.3a1.6,1.6,0,0,1,.9,1.114H4.194Zm15.091,8.218L2.211,16.724a.966.966,0,0,1-1.084-.15.952.952,0,0,1-.285-1.017L4.2,9.145h12.6a1.6,1.6,0,0,1-.905,1.12Z" transform="translate(-0.008 0.002)" fill="#0472f4"/>
</svg>
