<svg xmlns="http://www.w3.org/2000/svg" width="15" height="15" viewBox="0 0 15 15">
  <path id="pen-circle" d="M7.5,0A7.5,7.5,0,1,0,15,7.5,7.508,7.508,0,0,0,7.5,0Zm0,14.375A6.875,6.875,0,1,1,14.375,7.5,6.883,6.883,0,0,1,7.5,14.375ZM8.9,3.635,4.574,7.964A2.792,2.792,0,0,0,3.75,9.953v.984a.313.313,0,0,0,.312.313h.984a2.8,2.8,0,0,0,1.989-.824L11.365,6.1a1.741,1.741,0,0,0,0-2.463,1.782,1.782,0,0,0-2.462,0ZM6.594,9.984a2.174,2.174,0,0,1-1.547.641H4.375V9.953a2.175,2.175,0,0,1,.641-1.547L8.208,5.213,9.786,6.791,6.594,9.983Zm4.329-4.329-.694.694L8.651,4.771l.694-.694a1.141,1.141,0,0,1,1.578,0,1.117,1.117,0,0,1,0,1.579Z"/>
</svg>
