<svg xmlns="http://www.w3.org/2000/svg" width="15" height="15.001" viewBox="0 0 15 15.001">
  <path id="people-roof" d="M.133,5.714A.625.625,0,0,1,.24,4.837L5.574.663a3.119,3.119,0,0,1,3.851,0l5.334,4.174a.625.625,0,0,1-.77.985L8.655,1.648a1.871,1.871,0,0,0-2.311,0L1.01,5.821a.626.626,0,0,1-.877-.107ZM2.88,11.377a.626.626,0,0,1,.246.5v2.5A.624.624,0,0,1,2.5,15H.625A.624.624,0,0,1,0,14.373a3.248,3.248,0,0,1,2.336-3.1.63.63,0,0,1,.544.106Zm12.12,3a.624.624,0,0,1-.625.625H12.5a.624.624,0,0,1-.625-.625v-2.5a.625.625,0,0,1,.789-.6A3.248,3.248,0,0,1,15,14.373ZM2.812,6.874A1.562,1.562,0,1,0,4.375,8.436,1.562,1.562,0,0,0,2.812,6.874ZM13.749,8.436A1.562,1.562,0,1,0,12.187,10,1.562,1.562,0,0,0,13.749,8.436ZM7.5,5A1.562,1.562,0,1,0,9.062,6.561,1.562,1.562,0,0,0,7.5,5Zm3.125,7.5v1.875A.624.624,0,0,1,10,15H5a.624.624,0,0,1-.625-.625V12.5a3.125,3.125,0,1,1,6.25,0Z" transform="translate(0 0.003)" fill="#169b78"/>
</svg>
