<svg xmlns="http://www.w3.org/2000/svg" width="15.001" height="15" viewBox="0 0 15.001 15">
  <path id="piggy-bank" d="M11.875,7.5a.625.625,0,1,1-.625-.625A.625.625,0,0,1,11.875,7.5ZM15,7.813V9.688a.939.939,0,0,1-.937.938h-.133a4.837,4.837,0,0,1-2.679,2.5v.314a1.563,1.563,0,0,1-3.094.313H6.218a1.563,1.563,0,0,1-3.094-.312v-.314a4.817,4.817,0,0,1-3.1-5.063,4.614,4.614,0,0,1,.8-2.13A1.875,1.875,0,0,1,1.875,2.5a.313.313,0,0,1,0,.625,1.25,1.25,0,0,0-.658,2.314A5.116,5.116,0,0,1,5.008,3.75H9.457a2.747,2.747,0,0,1,1.757-1.808.939.939,0,0,1,1.287.871V4.766a4.9,4.9,0,0,1,1.561,2.109h0A.911.911,0,0,1,15,7.812Zm-.625,0A.287.287,0,0,0,14.06,7.5h-.221a.314.314,0,0,1-.3-.216A4.261,4.261,0,0,0,12,5.175a.312.312,0,0,1-.129-.252V2.814a.309.309,0,0,0-.137-.259.315.315,0,0,0-.294-.032,2.094,2.094,0,0,0-1.426,1.594.313.313,0,0,1-.319.267L5.007,4.375A4.35,4.35,0,0,0,.649,8.127,4.2,4.2,0,0,0,3.534,12.6a.312.312,0,0,1,.216.3v.535a.937.937,0,1,0,1.875,0,.313.313,0,0,1,.313-.312h2.5a.313.313,0,0,1,.313.313.937.937,0,1,0,1.875,0V12.9a.313.313,0,0,1,.216-.3,4.213,4.213,0,0,0,2.6-2.411A.313.313,0,0,1,13.724,10h.338a.313.313,0,0,0,.313-.312V7.812Zm-10.312-5A.313.313,0,0,0,4.375,2.5a1.875,1.875,0,0,1,3.75,0,.313.313,0,0,0,.625,0,2.5,2.5,0,1,0-5,0A.313.313,0,0,0,4.062,2.813Z" transform="translate(0)"/>
</svg>
