<svg xmlns="http://www.w3.org/2000/svg" width="14.961" height="15" viewBox="0 0 14.961 15">
  <path id="selling" d="M4.052,0A4.052,4.052,0,1,0,8.1,4.052,4.057,4.057,0,0,0,4.052,0Zm0,7.48A3.429,3.429,0,1,1,7.48,4.052,3.433,3.433,0,0,1,4.052,7.48ZM14.961,4.052v1.87a.312.312,0,1,1-.623,0V4.052a1.56,1.56,0,0,0-1.558-1.558H10.162l1.284,1.343A.312.312,0,0,1,11,4.267L9.612,2.821a.911.911,0,0,1,0-1.283L11,.1a.312.312,0,1,1,.451.431L10.162,1.869h2.617a2.184,2.184,0,0,1,2.182,2.182Zm-.945,4.12L12.146,7.1a1.876,1.876,0,0,0-1.856,0L8.422,8.171A1.873,1.873,0,0,0,7.48,9.795v2.267a1.873,1.873,0,0,0,.942,1.623l1.868,1.069a1.877,1.877,0,0,0,1.856,0l1.87-1.069a1.873,1.873,0,0,0,.942-1.623V9.795a1.873,1.873,0,0,0-.942-1.623Zm-5.285.54L10.6,7.645a1.251,1.251,0,0,1,1.238,0l1.87,1.07a1.225,1.225,0,0,1,.312.264l-2.8,1.573L8.42,8.976a1.232,1.232,0,0,1,.31-.264Zm0,4.43A1.248,1.248,0,0,1,8.1,12.061V9.795a1.22,1.22,0,0,1,.035-.262l2.77,1.558v3.245a1.261,1.261,0,0,1-.31-.123L8.731,13.143Zm5.6-1.082a1.249,1.249,0,0,1-.628,1.082l-1.87,1.068a1.237,1.237,0,0,1-.3.123V11.091L14.3,9.535a1.214,1.214,0,0,1,.035.261v2.267ZM5.946,5.092A1.128,1.128,0,0,1,4.834,6.233H4.363v.312a.312.312,0,0,1-.623,0V6.233H3.268a1.115,1.115,0,0,1-1.077-.861A.312.312,0,0,1,2.8,5.224a.494.494,0,0,0,.472.386H4.834a.5.5,0,0,0,.488-.517.516.516,0,0,0-.357-.5L3.037,4.11a1.146,1.146,0,0,1-.816-1.1A1.128,1.128,0,0,1,3.333,1.869H3.74V1.558a.312.312,0,0,1,.623,0v.312h.472a1.115,1.115,0,0,1,1.077.861.312.312,0,0,1-.605.148.494.494,0,0,0-.472-.386h-1.5a.5.5,0,0,0-.488.517.516.516,0,0,0,.357.5l1.929.483a1.146,1.146,0,0,1,.816,1.1Zm-.6,7.047a.911.911,0,0,1,0,1.283L3.965,14.863a.312.312,0,0,1-.441.009.312.312,0,0,1-.01-.441L4.8,13.089H2.182A2.184,2.184,0,0,1,0,10.907V9.037a.312.312,0,1,1,.623,0v1.87a1.56,1.56,0,0,0,1.558,1.558H4.8L3.515,11.123a.312.312,0,1,1,.451-.431l1.383,1.446Z" transform="translate(0 0.001)"/>
</svg>
