<svg xmlns="http://www.w3.org/2000/svg" width="20.001" height="20" viewBox="0 0 20.001 20">
  <path id="site-alt" d="M19.257,12.612,11.914,9.279a2.076,2.076,0,0,0-2.146.5,2.108,2.108,0,0,0-.453,2.26L12.6,19.267A1.26,1.26,0,0,0,13.724,20h.016a1.245,1.245,0,0,0,1.118-.691l1.48-2.961,2.962-1.48a1.25,1.25,0,0,0-.042-2.256Zm-.331,1.51-3.209,1.6-1.6,3.209a.4.4,0,0,1-.363.232.444.444,0,0,1-.389-.245l-3.273-7.194a1.264,1.264,0,0,1,.27-1.361,1.22,1.22,0,0,1,.873-.361,1.38,1.38,0,0,1,.452.078l7.229,3.287a.417.417,0,0,1,.243.371.421.421,0,0,1-.23.381ZM10,0H9.986A10,10,0,0,0,10,20c.145,0,.29,0,.434-.009a.417.417,0,0,0-.034-.833c-.077,0-.154.006-.231.007a17.313,17.313,0,0,1-3.408-5H7.917a.417.417,0,0,0,0-.833H6.436A10.075,10.075,0,0,1,5.834,10a10.055,10.055,0,0,1,.6-3.333h7.131A11.165,11.165,0,0,1,13.948,8a.418.418,0,0,0,.407.329.4.4,0,0,0,.088-.009.416.416,0,0,0,.319-.495c-.086-.4-.193-.785-.314-1.162H18.54A9.118,9.118,0,0,1,19.167,10c0,.133,0,.266-.008.4a.416.416,0,0,0,.4.434.405.405,0,0,0,.434-.4C20,10.289,20,10.144,20,10A10.012,10.012,0,0,0,10,0ZM.833,10a9.118,9.118,0,0,1,.628-3.333H5.548A10.851,10.851,0,0,0,5,10a10.851,10.851,0,0,0,.548,3.333H1.461A9.118,9.118,0,0,1,.833,10Zm5.016,4.167a17.413,17.413,0,0,0,3.119,4.942,9.186,9.186,0,0,1-7.133-4.942Zm0-8.333H1.836A9.186,9.186,0,0,1,8.969.892,17.413,17.413,0,0,0,5.85,5.833Zm.913,0A17.389,17.389,0,0,1,10,1.008a17.367,17.367,0,0,1,3.24,4.825H6.763Zm7.383,0A17.441,17.441,0,0,0,11.029.892a9.189,9.189,0,0,1,7.134,4.942Z"/>
</svg>
