<svg xmlns="http://www.w3.org/2000/svg" xmlns:xlink="http://www.w3.org/1999/xlink" width="29.694" height="29.824" viewBox="0 0 29.694 29.824">
  <defs>
    <filter id="sparkles" x="0" y="0" width="29.694" height="29.824" filterUnits="userSpaceOnUse">
      <feOffset dy="3" input="SourceAlpha"/>
      <feGaussianBlur stdDeviation="3" result="blur"/>
      <feFlood flood-opacity="0.051"/>
      <feComposite operator="in" in2="blur"/>
      <feComposite in="SourceGraphic"/>
    </filter>
  </defs>
  <g transform="matrix(1, 0, 0, 1, 0, 0)" filter="url(#sparkles)">
    <path id="sparkles-2" data-name="sparkles" d="M5.061,10.462l-1.6-3.2-3.2-1.6,3.2-1.6,1.6-3.2,1.6,3.2,3.2,1.6-3.2,1.6ZM9,10.346l.739,1.478.739-1.478,1.478-.739L10.48,8.868,9.741,7.39,9,8.868l-1.478.739ZM9.659,2.3l.575,1.149L10.808,2.3l1.149-.575-1.149-.575L10.234,0,9.659,1.149l-1.149.575Z" transform="translate(8.74 6)" fill="#fff"/>
  </g>
</svg>
