<svg xmlns="http://www.w3.org/2000/svg" width="15" height="15" viewBox="0 0 15 15">
  <path id="stats" d="M15,14.688a.313.313,0,0,1-.312.313H2.813A2.816,2.816,0,0,1,0,12.188V.313a.313.313,0,0,1,.625,0V12.188a2.19,2.19,0,0,0,2.188,2.188H14.688A.313.313,0,0,1,15,14.688ZM11.563,12.5a.313.313,0,0,0,.313-.312V4.063a.313.313,0,0,0-.625,0v8.125A.313.313,0,0,0,11.563,12.5Zm-2.5,0a.313.313,0,0,0,.313-.312v-5a.313.313,0,0,0-.625,0v5A.313.313,0,0,0,9.063,12.5Zm-2.5,0a.313.313,0,0,0,.313-.312V4.063a.313.313,0,0,0-.625,0v8.125A.313.313,0,0,0,6.563,12.5Zm-2.5,0a.313.313,0,0,0,.313-.312v-5a.313.313,0,0,0-.625,0v5A.313.313,0,0,0,4.063,12.5Z"/>
</svg>
