<svg xmlns="http://www.w3.org/2000/svg" width="15" height="15" viewBox="0 0 15 15">
  <path id="tshirt" d="M13.174.71A5.753,5.753,0,0,0,10.432,0H4.569A5.745,5.745,0,0,0,1.826.71,3.522,3.522,0,0,0,0,3.835V4.7A2.19,2.19,0,0,0,2.188,6.89H2.5v5.3A2.816,2.816,0,0,0,5.313,15H9.688A2.816,2.816,0,0,0,12.5,12.188V6.875h.313A2.19,2.19,0,0,0,15,4.688V3.835A3.523,3.523,0,0,0,13.174.71ZM9.665.625a2.187,2.187,0,0,1-4.33,0Zm4.71,4.063A1.565,1.565,0,0,1,12.813,6.25H12.5V4.375a.313.313,0,0,0-.625,0v7.813a2.19,2.19,0,0,1-2.187,2.188H5.313a2.19,2.19,0,0,1-2.187-2.187V4.375a.313.313,0,0,0-.625,0v1.89H2.188A1.565,1.565,0,0,1,.625,4.7V3.835a2.9,2.9,0,0,1,1.5-2.574A5.135,5.135,0,0,1,4.569.625H4.7a2.812,2.812,0,0,0,5.59,0h.136a5.128,5.128,0,0,1,2.447.636,2.9,2.9,0,0,1,1.5,2.574v.852Z"/>
</svg>
