<svg xmlns="http://www.w3.org/2000/svg" width="15" height="14.951" viewBox="0 0 15 14.951">
  <path id="usd-circle" d="M7.5,0A7.508,7.508,0,0,0,0,7.5c.377,9.936,14.625,9.934,15,0A7.508,7.508,0,0,0,7.5,0Zm.625,10.625v.625a.625.625,0,0,1-1.25,0v-.625H6.708a1.882,1.882,0,0,1-1.624-.937.625.625,0,1,1,1.081-.626.627.627,0,0,0,.542.313H8.124c.623.041.9-.969.222-1.1l-1.9-.317c-2.189-.406-1.718-3.6.428-3.583V3.75a.625.625,0,0,1,1.25,0v.625h.167a1.882,1.882,0,0,1,1.624.938.625.625,0,1,1-1.081.626.628.628,0,0,0-.542-.312H6.875c-.623-.041-.9.969-.222,1.1l1.9.317c2.189.406,1.717,3.6-.428,3.583Z" fill="#3f7600"/>
</svg>
