<svg xmlns="http://www.w3.org/2000/svg" width="11.25" height="15" viewBox="0 0 11.25 15">
  <path id="user-md" d="M8.625,7.5a3.75,3.75,0,1,0-3.75-3.75A3.754,3.754,0,0,0,8.625,7.5Zm0-6.875A3.125,3.125,0,1,1,5.5,3.75,3.128,3.128,0,0,1,8.625.625Zm0,8.125A5.631,5.631,0,0,0,3,14.374v.312a.312.312,0,0,0,.625,0v-.312a5,5,0,0,1,2.5-4.324v1.868a1.25,1.25,0,1,0,.625,0V9.743a4.959,4.959,0,0,1,3.75,0v2.164a1.564,1.564,0,0,0-1.25,1.531v1.25a.312.312,0,0,0,.625,0v-1.25a.937.937,0,1,1,1.875,0v1.25a.312.312,0,0,0,.625,0v-1.25a1.564,1.564,0,0,0-1.25-1.531V10.051a5,5,0,0,1,2.5,4.324v.312a.312.312,0,0,0,.625,0v-.312A5.631,5.631,0,0,0,8.625,8.75ZM7.062,13.124a.625.625,0,1,1-.625-.625A.625.625,0,0,1,7.062,13.124Z" transform="translate(-3)"/>
</svg>
