<svg xmlns="http://www.w3.org/2000/svg" width="15" height="15" viewBox="0 0 15 15">
  <path id="workshop" d="M2.813,3.125A1.563,1.563,0,1,0,1.25,1.563,1.564,1.564,0,0,0,2.813,3.125Zm0-2.5a.938.938,0,1,1-.937.938A.939.939,0,0,1,2.813.625ZM5,4.375V8.75H4.375V4.375H1.563a.939.939,0,0,0-.937.938V8.75H0V5.313A1.564,1.564,0,0,1,1.563,3.75H9.375v.625ZM13.438,0H5.15a2.746,2.746,0,0,1,.309.625h7.979a.939.939,0,0,1,.938.938V8.125h-1.25V6.875H10v1.25H6.25V8.75H15V1.563A1.564,1.564,0,0,0,13.438,0ZM10.625,7.5H12.5v.625H10.625ZM2.188,12.188a.938.938,0,1,0-.937-.937A.939.939,0,0,0,2.188,12.188Zm5.313,0a.938.938,0,1,0-.937-.937A.939.939,0,0,0,7.5,12.188Zm5.313,0a.938.938,0,1,0-.937-.937A.939.939,0,0,0,12.813,12.188ZM4.375,14.375V15H3.75v-.625a.626.626,0,0,0-.625-.625H1.25a.626.626,0,0,0-.625.625V15H0v-.625a1.251,1.251,0,0,1,1.25-1.25H3.125A1.251,1.251,0,0,1,4.375,14.375Zm10.625,0V15h-.625v-.625a.626.626,0,0,0-.625-.625H11.875a.626.626,0,0,0-.625.625V15h-.625v-.625a1.251,1.251,0,0,1,1.25-1.25H13.75A1.251,1.251,0,0,1,15,14.375Zm-5.312,0V15H9.063v-.625a.626.626,0,0,0-.625-.625H6.563a.626.626,0,0,0-.625.625V15H5.313v-.625a1.251,1.251,0,0,1,1.25-1.25H8.438A1.251,1.251,0,0,1,9.688,14.375Z"/>
</svg>
