<svg xmlns="http://www.w3.org/2000/svg" width="15" height="15" viewBox="0 0 15 15">
  <path id="calendar-lines" d="M12.188,1.25H11.25V.313a.313.313,0,0,0-.625,0V1.25H4.375V.313a.313.313,0,0,0-.625,0V1.25H2.813A2.816,2.816,0,0,0,0,4.063v8.125A2.816,2.816,0,0,0,2.813,15h9.375A2.816,2.816,0,0,0,15,12.188V4.063A2.816,2.816,0,0,0,12.188,1.25Zm-9.375.625h9.375a2.19,2.19,0,0,1,2.188,2.188V5H.625V4.063A2.19,2.19,0,0,1,2.813,1.875Zm9.375,12.5H2.813A2.19,2.19,0,0,1,.625,12.188V5.625h13.75v6.563A2.19,2.19,0,0,1,12.188,14.375Zm-.312-5.937a.313.313,0,0,1-.312.313H3.438a.313.313,0,0,1,0-.625h8.125A.313.313,0,0,1,11.875,8.438ZM7.5,11.563a.313.313,0,0,1-.312.313H3.438a.313.313,0,0,1,0-.625h3.75A.313.313,0,0,1,7.5,11.563Z"/>
</svg>
