<svg xmlns="http://www.w3.org/2000/svg" width="15" height="15" viewBox="0 0 15 15">
  <path id="category_1_" data-name="category (1)" d="M5.313,0h-2.5A2.816,2.816,0,0,0,0,2.813v2.5a.939.939,0,0,0,.938.938H5.313a.939.939,0,0,0,.938-.937V.938A.939.939,0,0,0,5.313,0Zm.313,5.313a.313.313,0,0,1-.312.313H.938a.313.313,0,0,1-.312-.312v-2.5A2.19,2.19,0,0,1,2.813.625h2.5a.313.313,0,0,1,.313.313Zm2.813.938h4.375a.939.939,0,0,0,.938-.937v-2.5A2.816,2.816,0,0,0,10.938,0h-2.5A.939.939,0,0,0,7.5.938V5.313A.939.939,0,0,0,8.438,6.25ZM8.125.938A.313.313,0,0,1,8.438.625h2.5a2.19,2.19,0,0,1,2.188,2.188v2.5a.313.313,0,0,1-.312.313H8.438a.313.313,0,0,1-.312-.312ZM5.313,7.5H.938A.939.939,0,0,0,0,8.438v2.5A2.816,2.816,0,0,0,2.813,13.75h2.5a.939.939,0,0,0,.938-.937V8.438A.939.939,0,0,0,5.313,7.5Zm.313,5.313a.313.313,0,0,1-.312.313h-2.5A2.19,2.19,0,0,1,.625,10.938v-2.5a.313.313,0,0,1,.313-.312H5.313a.313.313,0,0,1,.313.313Zm9.284,1.654-1.875-1.875a3.1,3.1,0,0,0,.716-1.966,3.125,3.125,0,1,0-3.125,3.125,3.1,3.1,0,0,0,1.966-.716l1.875,1.875a.313.313,0,0,0,.443-.442Zm-4.284-1.341a2.5,2.5,0,1,1,2.5-2.5A2.5,2.5,0,0,1,10.625,13.125Z"/>
</svg>
