<svg xmlns="http://www.w3.org/2000/svg" width="14.579" height="14.579" viewBox="0 0 14.579 14.579">
  <path id="lightbulb-on" d="M10.365,1.979,11.38.156a.3.3,0,0,1,.53.3L10.9,2.274a.3.3,0,0,1-.265.156.307.307,0,0,1-.148-.038.3.3,0,0,1-.117-.413ZM14.553,3.21a.305.305,0,0,0-.4-.156l-1.822.8a.3.3,0,0,0,.122.582.31.31,0,0,0,.122-.026l1.822-.8A.3.3,0,0,0,14.553,3.21ZM3.683,2.274a.3.3,0,0,0,.265.156A.307.307,0,0,0,4.1,2.392a.3.3,0,0,0,.117-.413L3.2.156a.3.3,0,1,0-.53.3L3.684,2.274ZM2.248,3.857l-1.822-.8a.3.3,0,1,0-.244.556L2,4.413a.31.31,0,0,0,.122.026.3.3,0,0,0,.122-.582Zm9.9,3.432a4.868,4.868,0,0,1-2.046,3.96.909.909,0,0,0-.384.738v.77A1.825,1.825,0,0,1,7.9,14.579H6.682a1.845,1.845,0,0,1-1.822-1.9v-.688a.914.914,0,0,0-.389-.74,4.859,4.859,0,1,1,7.678-3.957ZM9.112,12.756v-.607H5.467v.525a1.23,1.23,0,0,0,1.215,1.3H7.9A1.216,1.216,0,0,0,9.112,12.756Zm2.43-5.467A4.26,4.26,0,0,0,10.125,4.12,4.205,4.205,0,0,0,7.3,3.037a4.5,4.5,0,0,0-.493.027,4.25,4.25,0,0,0-1.98,7.687,1.531,1.531,0,0,1,.567.79h1.6V8.473A1.521,1.521,0,0,1,5.771,6.985a.3.3,0,0,1,.607,0,.911.911,0,0,0,1.822,0,.3.3,0,0,1,.607,0A1.52,1.52,0,0,1,7.593,8.473v3.068h1.6a1.518,1.518,0,0,1,.563-.787,4.257,4.257,0,0,0,1.791-3.465Z" transform="translate(0 0)" fill="#289bf4"/>
</svg>
